<svg version="1.2" xmlns="http://www.w3.org/2000/svg" viewBox="23 498 871 1131" width="770" height="1000"><style>.a{fill:#9a969e;stroke:#fff;stroke-linejoin:bevel;stroke-width:4}.b{fill:#9a969e;stroke:#fff;stroke-linecap:square;stroke-linejoin:bevel;stroke-width:4}.c{fill:#804ba3;stroke:#fff;stroke-linecap:round;stroke-linejoin:bevel;stroke-width:4}.d{fill:#9a969e;stroke:#fff;stroke-miterlimit:10;stroke-width:4}.e{fill:#00a1b3;stroke:#fff;stroke-miterlimit:10;stroke-width:4}.f{fill:#334;stroke:#fff;stroke-miterlimit:10;stroke-width:3}.g{fill:#9a969e;stroke:#fff;stroke-linecap:round;stroke-linejoin:bevel;stroke-width:4}.h{fill:#804ba3;stroke:#fff;stroke-linecap:square;stroke-linejoin:bevel;stroke-width:4}.i{fill:#6c00bf;stroke:#fff;stroke-miterlimit:10;stroke-width:4}.j{fill:#2e2e5e;stroke:#fff;stroke-miterlimit:10;stroke-width:4}.k{fill:#fff}.l{fill:#1d1d3d;stroke:#fff;stroke-linecap:round;stroke-linejoin:round;stroke-width:6}</style><path fill-rule="evenodd" class="a" d="m76.1 1417.4l-3.1 54.6 34 90 126 63 297-159 145-44 38.3-54.8-12.7-27.3z"/><path fill-rule="evenodd" class="b" d="m521 550.6l0.1 16.8 84.9 1.6 27.2 80.6 98.8 14.5 63.9 121.9 2.2 92.2-31.3 62.8h55.2l5.3-406.3z"/><path fill-rule="evenodd" class="c" d="m892.4 496.1l-0.4 620.9h-186.1l-1.3-176.3 64.9-3.3 47.6-51.7-2.1-108.7-74.5-134.7-94.8-14.1-27.6-79-98.3-0.4-0.3-52.4z"/><path fill-rule="evenodd" class="d" d="m165.8 786.3l-29.4 0.8-3.3-228.2 97.8-1.1 0.1 18-67.2 0.2z"/><path fill-rule="evenodd" class="e" d="m606.3 570.7l11.9-18.8z"/><path fill-rule="evenodd" class="f" d="m142.9 560.6l22 17.2z"/><path fill-rule="evenodd" class="g" d="m141.8 1095.2l27.9-0.4-1.7-35.8 71-76 42-14 63 36 110 90 98-17 45.6-77.6-17.4-42.5-328.2-22.9-127 73z"/><path fill-rule="evenodd" class="c" d="m211.6 1294.6l188.4 29.4 123-74.2 62-14.6 82.3 21.8 38.2 95.3-35.3 53.2-145.9 41.2-287.2 152.7-120-61.7-41.4-120.5z"/><path fill-rule="evenodd" class="h" d="m375 863l63-26 114 51 32 79-42 85-81 18-103-80-70-45-58 13-86.8 92.5v45.5h-115.4v-535h-0.8v-63h205v62l-88.8 1v215.6z"/><path fill-rule="evenodd" class="i" d="m454.5 1094.7l6.4-25.9z"/><path fill-rule="evenodd" class="i" d="m169.6 1057.6l-25.7-7.1z"/><path fill-rule="evenodd" class="i" d="m117.2 1537.2l-10.9 25.9z"/><path fill-rule="evenodd" class="e" d="m632.3 650.1l14.5-20.2z"/><path fill-rule="evenodd" class="j" d="m551.4 1077.9l-9.9-27.2z"/><path class="k" d="m87.9 1051.5q0 1.7-0.6 3.1-0.6 1.5-1.7 2.5-1.1 1.1-2.6 1.6l-1.2-2.8q1.5-0.6 2.4-1.8 0.9-1.3 0.9-2.8 0-0.9-0.3-1.5-0.3-0.6-0.8-1-0.4-0.3-1.1-0.3-0.8 0-1.3 0.5-0.5 0.4-0.8 1.3l-1.1 3.5q-0.7 2.1-2 3.1-1.3 1.1-3 1.1-1.6 0-2.7-0.8-1.2-0.7-1.9-2.1-0.6-1.3-0.6-3.1 0-1.6 0.6-2.9 0.5-1.4 1.5-2.4 1-0.9 2.3-1.4l1.2 2.7q-1.3 0.5-2 1.6-0.8 1-0.8 2.4 0 0.8 0.3 1.4 0.3 0.7 0.8 1 0.5 0.4 1.1 0.4 0.8 0 1.4-0.5 0.5-0.5 0.8-1.5l1.1-3.3q0.7-2.1 1.9-3.2 1.2-1 3-1 1.5 0 2.7 0.8 1.2 0.7 1.9 2.1 0.6 1.4 0.6 3.3zm0-13.6q0 1.6-0.6 2.7-0.7 1.1-1.9 1.7-1.2 0.6-2.8 0.6h-8v-3.2h7.7q0.8 0 1.5-0.3 0.6-0.3 0.9-0.9 0.4-0.7 0.4-1.4 0-0.8-0.4-1.4-0.3-0.6-1-0.9-0.6-0.4-1.5-0.4h-7.6v-3.1h13v3h-2.5l0.4-0.3q1.2 0.5 1.8 1.5 0.6 1 0.6 2.4zm-0.3-12.7v3.2h-13v-3h2.6l-0.5 0.3q-1.2-0.5-1.8-1.5-0.6-1.1-0.6-2.5 0-1.4 0.6-2.5 0.6-1.2 1.8-1.8 1.1-0.6 2.5-0.6h8.4v3.1h-7.6q-0.9 0-1.5 0.4-0.6 0.3-1 0.9-0.3 0.6-0.3 1.4 0 0.7 0.3 1.3 0.4 0.6 1 1 0.6 0.3 1.5 0.3zm0.3-16q0 2.1-1 3.6-1 1.5-2.7 2.1l-1.1-2.3q1.1-0.5 1.7-1.4 0.6-0.9 0.6-2 0-0.9-0.4-1.4-0.4-0.5-1-0.5-0.4 0-0.6 0.2-0.3 0.2-0.4 0.6-0.2 0.3-0.4 0.7l-0.6 2.1q-0.4 1.7-1.4 2.6-1 0.8-2.3 0.8-1.2 0-2.1-0.6-0.9-0.6-1.5-1.7-0.5-1.1-0.5-2.5 0-1.9 0.9-3.3 0.9-1.4 2.5-2l1.2 2.4q-0.9 0.3-1.5 1.1-0.5 0.8-0.5 1.8 0 0.8 0.4 1.2 0.3 0.5 0.9 0.5 0.4 0 0.6-0.2 0.3-0.2 0.5-0.5 0.1-0.4 0.3-0.8l0.6-2.1q0.5-1.6 1.4-2.5 1-0.9 2.4-0.9 1.2 0 2.1 0.6 0.9 0.7 1.4 1.8 0.5 1.1 0.5 2.6zm-0.3-10.5v3.1h-18.2v-3.1h7.7l-0.5 0.4q-1.1-0.5-1.7-1.5-0.7-1.1-0.7-2.5 0-1.4 0.7-2.5 0.6-1.1 1.7-1.7 1.1-0.7 2.6-0.7h8.4v3.2h-7.7q-0.8 0-1.5 0.3-0.6 0.3-0.9 0.9-0.4 0.6-0.4 1.4 0 0.8 0.4 1.4 0.3 0.6 0.9 0.9 0.7 0.4 1.5 0.4zm0-14.3v3.2h-13v-3.2zm-14.5 0v3.2h-3.4v-3.2zm14.5-6v3.1h-13v-2.9h2.5l-0.4 0.2q-1.2-0.5-1.8-1.5-0.6-1-0.6-2.4 0-1.5 0.6-2.6 0.6-1.1 1.7-1.7 1.2-0.7 2.6-0.7h8.4v3.2h-7.6q-0.9 0-1.5 0.3-0.7 0.4-1 1-0.3 0.5-0.3 1.3 0 0.8 0.3 1.4 0.3 0.6 1 0.9 0.6 0.4 1.5 0.4zm0.2-17.3q0 2-0.9 3.5-0.9 1.5-2.4 2.4-1.6 0.8-3.5 0.8-2 0-3.5-0.8-1.5-0.9-2.4-2.4-0.9-1.4-0.9-3.3 0-1.5 0.5-2.7 0.5-1.1 1.4-1.9 0.9-0.9 2.1-1.3 1.1-0.4 2.4-0.4 0.3 0 0.7 0 0.4 0 0.6 0.1v10.1h-2.4v-8.3l1.1 1.5q-1.1-0.2-1.9 0.1-0.9 0.3-1.4 1.1-0.5 0.7-0.5 1.7 0 1 0.5 1.8 0.5 0.8 1.5 1.2 0.9 0.3 2.2 0.2 1.2 0.1 2.2-0.3 0.9-0.4 1.4-1.2 0.5-0.9 0.5-1.9 0-1.1-0.5-1.9-0.4-0.7-1.2-1.2l1.3-2.5q0.9 0.4 1.6 1.2 0.7 0.8 1.1 1.9 0.4 1.1 0.4 2.5zm21.6 77.2q0 1.7-0.6 3.2-0.6 1.4-1.7 2.5-1.1 1-2.6 1.5l-1.2-2.7q1.5-0.7 2.4-1.9 0.9-1.2 0.9-2.7 0-0.9-0.3-1.5-0.3-0.7-0.7-1-0.5-0.4-1.2-0.4-0.8 0-1.3 0.5-0.5 0.5-0.8 1.4l-1.1 3.4q-0.7 2.1-2 3.2-1.2 1-3 1-1.5 0-2.7-0.7-1.2-0.8-1.8-2.1-0.7-1.4-0.7-3.1 0-1.7 0.6-3 0.5-1.3 1.5-2.3 1-1 2.4-1.5l1.2 2.7q-1.4 0.5-2.1 1.6-0.8 1.1-0.8 2.5 0 0.8 0.3 1.4 0.3 0.6 0.8 1 0.5 0.3 1.2 0.3 0.7 0 1.3-0.5 0.5-0.4 0.8-1.4l1.1-3.3q0.7-2.2 1.9-3.2 1.2-1.1 3-1.1 1.6 0 2.7 0.8 1.2 0.8 1.9 2.2 0.6 1.4 0.6 3.2zm0-15q0 2-0.9 3.5-0.9 1.5-2.4 2.3-1.6 0.9-3.5 0.9-2 0-3.5-0.9-1.5-0.8-2.4-2.3-0.9-1.5-0.9-3.3 0-1.5 0.5-2.7 0.5-1.2 1.4-2 0.9-0.8 2.1-1.2 1.1-0.5 2.4-0.5 0.3 0 0.7 0.1 0.4 0 0.6 0.1v10.1h-2.4v-8.3l1.1 1.5q-1.1-0.3-1.9 0.1-0.9 0.3-1.4 1-0.5 0.8-0.5 1.8 0 1 0.5 1.7 0.5 0.8 1.5 1.2 0.9 0.4 2.2 0.3 1.2 0.1 2.2-0.3 0.9-0.4 1.4-1.3 0.5-0.8 0.5-1.9 0-1.1-0.5-1.8-0.4-0.8-1.2-1.2l1.3-2.5q0.9 0.3 1.6 1.2 0.7 0.8 1.1 1.9 0.4 1.1 0.4 2.5zm0-14.8q0 1.9-0.8 3.5-1 1.5-2.5 2.4-1.5 0.9-3.5 0.9-1.9 0-3.5-0.9-1.5-0.9-2.4-2.4-0.9-1.6-0.9-3.5 0-1.4 0.5-2.6 0.5-1.2 1.4-2.1 0.8-0.9 2-1.3l1.2 2.8q-1 0.4-1.6 1.2-0.6 0.9-0.6 2 0 1 0.5 1.8 0.5 0.8 1.4 1.3 0.9 0.4 2 0.4 1.2 0 2.1-0.4 0.9-0.5 1.4-1.3 0.5-0.8 0.5-1.8 0-1.2-0.6-2-0.6-0.8-1.6-1.2l1.2-2.8q1.1 0.4 2 1.3 0.9 0.9 1.4 2.1 0.4 1.2 0.4 2.6zm-0.1-14.3q0 2.2-1.2 3.4-1.2 1.2-3.4 1.2h-5.8v2.3h-2.8v-0.2q0-1-0.5-1.5-0.5-0.6-1.5-0.6h-1v-3.1h3v-3h2.8v3h5.6q0.7 0 1.1-0.2 0.5-0.3 0.7-0.7 0.2-0.5 0.2-1.3 0-0.2 0-0.4 0-0.2 0-0.4h2.7q0 0.3 0.1 0.7 0 0.5 0 0.8zm0.1-10.2q0 1.9-0.8 3.5-0.9 1.6-2.5 2.5-1.5 0.9-3.5 0.9-1.9 0-3.5-0.9-1.5-0.9-2.4-2.5-0.9-1.6-0.9-3.5 0-1.9 0.9-3.5 0.9-1.6 2.4-2.5 1.5-0.9 3.5-0.9 2 0 3.5 0.9 1.6 1 2.5 2.5 0.8 1.6 0.8 3.5zm-2.8 0q0-1.1-0.5-1.9-0.5-0.8-1.4-1.2-0.9-0.5-2.1-0.5-1.1 0-2 0.5-0.9 0.4-1.4 1.2-0.5 0.8-0.5 1.9 0 1.1 0.5 1.9 0.5 0.8 1.4 1.3 0.9 0.4 2 0.4 1.2 0 2.1-0.4 0.9-0.5 1.4-1.3 0.5-0.8 0.5-1.9zm2.6-12.4v3.1h-13.1v-2.9h2.9l-0.4 0.2q-1.5-0.4-2.1-1.4-0.5-1-0.5-2.4v-0.7h2.7v1.1q0 1.3 0.9 2.2 0.8 0.8 2.3 0.8z"/><path class="k" d="m189.7 1462.3q-1.7 0-3.2-0.6-1.4-0.7-2.5-1.8-1-1.1-1.5-2.6l2.7-1.2q0.7 1.6 1.9 2.5 1.2 0.8 2.7 0.8 0.9 0 1.5-0.2 0.7-0.3 1-0.8 0.4-0.5 0.4-1.2 0-0.7-0.5-1.2-0.5-0.6-1.4-0.9l-3.4-1.1q-2.1-0.6-3.2-1.9-1-1.3-1-3.1 0-1.5 0.7-2.7 0.8-1.1 2.1-1.8 1.4-0.7 3.2-0.7 1.6 0 2.9 0.6 1.3 0.6 2.3 1.6 1 1 1.5 2.3l-2.7 1.2q-0.5-1.3-1.6-2.1-1.1-0.7-2.4-0.7-0.9 0-1.5 0.3-0.6 0.2-1 0.7-0.3 0.5-0.3 1.2 0 0.7 0.5 1.3 0.5 0.6 1.4 0.9l3.3 1q2.2 0.7 3.2 1.9 1.1 1.3 1.1 3.1 0 1.5-0.8 2.7-0.8 1.1-2.2 1.8-1.4 0.7-3.2 0.7zm13.5 0q-1.5 0-2.6-0.7-1.1-0.7-1.7-1.9-0.6-1.2-0.6-2.8v-8h3.1v7.8q0 0.8 0.4 1.4 0.3 0.6 0.9 1 0.6 0.3 1.4 0.3 0.7 0 1.3-0.3 0.6-0.4 1-1 0.3-0.6 0.3-1.5v-7.7h3.2v13.1h-3v-2.6l0.3 0.5q-0.5 1.2-1.6 1.8-1 0.6-2.4 0.6zm12.7-0.3h-3.1v-13.1h2.9v2.6l-0.2-0.4q0.5-1.2 1.5-1.8 1-0.6 2.4-0.6 1.5 0 2.6 0.6 1.1 0.6 1.7 1.7 0.7 1.1 0.7 2.6v8.4h-3.2v-7.7q0-0.8-0.3-1.4-0.4-0.7-1-1-0.5-0.4-1.3-0.4-0.8 0-1.4 0.4-0.6 0.3-0.9 1-0.4 0.6-0.4 1.4zm-41.7 21h-3.2v-17.8h6.6q1.9 0 3.2 0.6 1.5 0.7 2.3 2 0.7 1.2 0.7 3 0 1.9-0.8 3.1-0.9 1.3-2.4 2l4.1 7.1h-3.7l-4.4-7.8 2.1 1.2h-4.5zm0-15v5.6h3.5q0.9 0 1.5-0.4 0.7-0.3 1-1 0.4-0.6 0.4-1.4 0-0.8-0.4-1.4-0.3-0.7-1-1-0.6-0.4-1.5-0.4zm18 15.3q-1.9 0-3.5-0.9-1.6-0.8-2.5-2.4-0.9-1.5-0.9-3.5 0-2 0.9-3.5 0.9-1.5 2.5-2.4 1.5-0.9 3.5-0.9 1.9 0 3.5 0.9 1.5 0.9 2.4 2.4 1 1.5 1 3.5 0 2-1 3.5-0.9 1.6-2.5 2.4-1.5 0.9-3.4 0.9zm0-2.8q1 0 1.8-0.6 0.8-0.5 1.3-1.3 0.5-1 0.5-2.1 0-1.1-0.5-2-0.5-0.9-1.3-1.4-0.8-0.5-1.8-0.5-1.1 0-1.9 0.5-0.8 0.5-1.3 1.4-0.5 0.9-0.5 2 0 1.1 0.5 2.1 0.5 0.8 1.3 1.3 0.8 0.6 1.9 0.6zm15.6 2.8q-1.9 0-3.5-0.9-1.5-0.8-2.5-2.4-0.9-1.5-0.9-3.5 0-2 0.9-3.5 1-1.5 2.5-2.4 1.6-0.9 3.5-0.9 1.9 0 3.5 0.9 1.6 0.9 2.5 2.4 0.9 1.5 0.9 3.5 0 2-0.9 3.5-1 1.6-2.5 2.4-1.6 0.9-3.5 0.9zm0-2.8q1.1 0 1.9-0.6 0.8-0.5 1.2-1.3 0.5-1 0.5-2.1 0-1.1-0.5-2-0.4-0.9-1.2-1.4-0.8-0.5-1.9-0.5-1.1 0-1.9 0.5-0.8 0.5-1.3 1.4-0.4 0.9-0.4 2 0 1.1 0.4 2.1 0.5 0.8 1.3 1.3 0.8 0.6 1.9 0.6zm12.4 2.5h-3.1v-13h2.9v3l-0.3-0.5q0.4-1.4 1.4-2.1 1.1-0.7 2.6-0.7 1.6 0 2.8 0.8 1.2 0.9 1.6 2.2l-0.9 0.1q0.6-1.5 1.8-2.3 1.2-0.8 2.8-0.8 1.4 0 2.5 0.6 1.1 0.6 1.7 1.8 0.6 1.1 0.6 2.5v8.4h-3.1v-7.6q0-0.9-0.4-1.5-0.3-0.6-0.8-1-0.6-0.3-1.4-0.3-0.7 0-1.3 0.3-0.6 0.4-0.9 1-0.3 0.6-0.3 1.5v7.6h-3.1v-7.6q0-0.9-0.3-1.5-0.3-0.6-0.9-1-0.6-0.3-1.3-0.3-0.8 0-1.4 0.3-0.5 0.4-0.9 1-0.3 0.6-0.3 1.5z"/><path class="k" d="m843 744.2v-3.3h15v-4.6h2.9v12.4h-2.9v-4.5zm0 9.4v-3.1h18.2v3.1h-7.7l0.4-0.4q1.2 0.4 1.8 1.5 0.6 1 0.6 2.4 0 1.5-0.6 2.6-0.6 1.1-1.7 1.7-1.1 0.6-2.6 0.6h-8.4v-3.1h7.7q0.8 0 1.4-0.3 0.7-0.4 1-1 0.4-0.6 0.4-1.3 0-0.8-0.4-1.4-0.3-0.6-1-0.9-0.6-0.4-1.4-0.4zm-0.3 17.3q0-2 0.9-3.5 0.9-1.5 2.5-2.4 1.5-0.8 3.4-0.8 2 0 3.5 0.8 1.5 0.9 2.4 2.3 0.9 1.5 0.9 3.4 0 1.5-0.5 2.6-0.5 1.2-1.4 2-0.9 0.9-2 1.3-1.2 0.4-2.5 0.4-0.3 0-0.7 0-0.3-0.1-0.6-0.2v-10h2.4v8.3l-1.1-1.5q1.1 0.2 1.9-0.1 0.9-0.3 1.4-1.1 0.5-0.7 0.5-1.7 0-1-0.5-1.8-0.5-0.8-1.4-1.2-1-0.4-2.3-0.3-1.2-0.1-2.2 0.4-0.9 0.4-1.4 1.2-0.5 0.8-0.5 1.9 0 1.1 0.5 1.8 0.4 0.8 1.2 1.2l-1.2 2.6q-1-0.4-1.7-1.2-0.7-0.8-1.1-2-0.4-1.1-0.4-2.4zm0 25.7q0-1.9 0.7-3.6 0.7-1.6 1.9-2.8 1.3-1.2 2.9-1.9 1.7-0.6 3.7-0.6 2 0 3.7 0.6 1.7 0.7 2.9 1.9 1.3 1.2 1.9 2.8 0.7 1.7 0.7 3.6 0 1.9-0.6 3.4-0.7 1.6-1.8 2.6-1 1.1-2.3 1.5l-1.3-2.9q1.3-0.5 2.2-1.7 0.8-1.2 0.8-2.9 0-1.7-0.7-3-0.8-1.2-2.2-2-1.4-0.7-3.3-0.7-1.9 0-3.3 0.7-1.4 0.8-2.2 2-0.8 1.3-0.8 3 0 1.7 0.9 2.9 0.9 1.2 2.2 1.7l-1.3 2.9q-1.3-0.4-2.4-1.5-1-1-1.7-2.6-0.6-1.5-0.6-3.4zm0 13.6q0-1.3 0.4-2.3 0.5-1.1 1.3-1.6 0.9-0.6 2-0.6 1.1 0 1.9 0.5 0.9 0.5 1.5 1.5 0.5 1 0.8 2.6l0.7 4.2h-2.4l-0.6-3.6q-0.2-1-0.6-1.4-0.5-0.5-1.2-0.5-0.6 0-1 0.5-0.4 0.5-0.4 1.3 0 1 0.4 1.7 0.4 0.8 1.2 1.2 0.7 0.4 1.6 0.4h3.3q0.9 0 1.4-0.6 0.6-0.7 0.6-1.8 0-1-0.5-1.8-0.6-0.7-1.5-1.1l1.3-2.6q1 0.4 1.8 1.2 0.7 0.9 1.2 2 0.4 1.1 0.4 2.5 0 1.6-0.6 2.8-0.6 1.2-1.6 1.9-1.1 0.7-2.5 0.7h-8.6v-3h2.2v0.7q-0.8-0.5-1.4-1.2-0.5-0.7-0.8-1.6-0.3-0.9-0.3-2zm0.3 16.5v-2.8l13-5.1v3.4l-10.3 3.7v-1.3l10.3 3.8v3.4zm-0.3 12.8q0-2 0.9-3.5 0.9-1.5 2.5-2.4 1.6-0.8 3.5-0.8 1.9 0 3.4 0.8 1.6 0.9 2.5 2.4 0.9 1.5 0.9 3.3 0 1.5-0.5 2.7-0.6 1.1-1.4 2-0.9 0.8-2.1 1.2-1.1 0.4-2.4 0.4-0.4 0-0.7 0-0.4 0-0.6-0.1v-10.1h2.4v8.3l-1.2-1.5q1.1 0.2 2-0.1 0.9-0.3 1.4-1.1 0.5-0.7 0.5-1.7 0-1-0.5-1.8-0.5-0.7-1.5-1.1-0.9-0.4-2.3-0.3-1.2-0.1-2.1 0.3-0.9 0.4-1.4 1.2-0.5 0.9-0.5 1.9 0 1.1 0.4 1.9 0.5 0.7 1.3 1.2l-1.3 2.5q-0.9-0.4-1.6-1.2-0.8-0.8-1.2-1.9-0.4-1.1-0.4-2.5z"/><path class="k" d="m725.7 991.8q0-1.7 0.6-3.2 0.7-1.4 1.8-2.5 1.1-1 2.6-1.5l1.2 2.7q-1.6 0.7-2.5 1.9-0.8 1.2-0.8 2.8 0 0.8 0.2 1.4 0.3 0.7 0.8 1 0.5 0.4 1.2 0.4 0.7 0 1.2-0.5 0.6-0.4 0.9-1.4l1.1-3.4q0.6-2.1 1.9-3.2 1.3-1 3.1-1 1.5 0 2.7 0.7 1.1 0.8 1.8 2.1 0.7 1.4 0.7 3.2 0 1.6-0.6 2.9-0.6 1.4-1.6 2.3-1 1-2.3 1.5l-1.2-2.7q1.3-0.5 2.1-1.6 0.7-1 0.7-2.4 0-0.9-0.3-1.5-0.2-0.6-0.7-1-0.5-0.3-1.2-0.3-0.7 0-1.3 0.5-0.6 0.5-0.9 1.4l-1 3.3q-0.7 2.2-1.9 3.2-1.3 1.1-3.1 1.1-1.5 0-2.7-0.8-1.1-0.8-1.8-2.2-0.7-1.4-0.7-3.2zm0.3 12v-3.1h18.2v3.1zm-0.3 6.9q0-1.4 0.4-2.4 0.5-1 1.3-1.6 0.9-0.5 2-0.5 1.1 0 1.9 0.5 0.9 0.4 1.5 1.5 0.6 1 0.8 2.5l0.7 4.3h-2.4l-0.6-3.7q-0.2-0.9-0.6-1.4-0.5-0.4-1.2-0.4-0.6 0-1 0.5-0.4 0.5-0.4 1.3 0 0.9 0.4 1.7 0.4 0.7 1.2 1.2 0.7 0.4 1.6 0.4h3.4q0.8 0 1.3-0.7 0.6-0.6 0.6-1.7 0-1-0.5-1.8-0.6-0.8-1.4-1.1l1.2-2.6q1 0.4 1.8 1.2 0.7 0.8 1.2 2 0.4 1.1 0.4 2.4 0 1.6-0.6 2.8-0.6 1.3-1.6 1.9-1.1 0.7-2.4 0.7h-8.7v-2.9h2.2v0.6q-0.8-0.5-1.4-1.2-0.5-0.7-0.8-1.6-0.3-0.8-0.3-1.9zm0 17.1q0-1.5 0.5-2.7 0.6-1.1 1.7-1.8l0.6 0.3h-2.5v-3h18.1v3.2h-7.7l0.7-0.5q1 0.7 1.6 1.8 0.6 1.2 0.6 2.7 0 1.8-0.9 3.3-0.9 1.5-2.4 2.4-1.6 0.9-3.5 0.9-1.9 0-3.5-0.9-1.5-0.9-2.4-2.4-0.9-1.4-0.9-3.3zm2.9-0.4q0 1.1 0.5 1.9 0.5 0.9 1.4 1.3 0.8 0.5 2 0.5 1.1 0 2-0.5 0.9-0.4 1.4-1.3 0.5-0.8 0.5-1.9 0-1-0.5-1.9-0.5-0.8-1.4-1.3-0.9-0.4-2-0.4-1.2 0-2 0.4-0.9 0.5-1.4 1.3-0.5 0.9-0.5 1.9zm-2.6 24.8v-10.9h17.8v3.3h-15v7.6zm-0.2 5.8q0-1.3 0.4-2.3 0.5-1.1 1.3-1.6 0.9-0.6 2-0.6 1.1 0 1.9 0.5 0.9 0.5 1.5 1.5 0.5 1 0.8 2.6l0.7 4.2h-2.4l-0.6-3.6q-0.2-1-0.6-1.4-0.5-0.5-1.2-0.5-0.6 0-1.1 0.5-0.3 0.5-0.3 1.3 0 1 0.4 1.7 0.4 0.8 1.1 1.2 0.8 0.4 1.7 0.4h3.3q0.9 0 1.4-0.6 0.6-0.7 0.6-1.8 0-1-0.5-1.8-0.6-0.7-1.5-1.1l1.3-2.6q1 0.4 1.8 1.2 0.7 0.9 1.2 2 0.4 1.1 0.4 2.5 0 1.6-0.6 2.8-0.6 1.2-1.6 1.9-1.1 0.7-2.5 0.7h-8.7v-3h2.3v0.7q-0.8-0.5-1.4-1.2-0.5-0.7-0.9-1.6-0.2-0.9-0.2-2zm0 17.1q0-1.4 0.5-2.6 0.6-1.2 1.6-1.9l0.7 0.3h-2.6v-2.9h18.2v3.1h-7.7l0.7-0.4q1 0.6 1.6 1.8 0.6 1.1 0.6 2.6 0 1.9-0.9 3.4-0.9 1.5-2.5 2.3-1.5 0.9-3.4 0.9-1.9 0-3.5-0.8-1.5-0.9-2.5-2.4-0.8-1.5-0.8-3.4zm2.8-0.3q0 1 0.5 1.9 0.5 0.8 1.4 1.3 0.9 0.5 2.1 0.5 1.1 0 2-0.5 0.9-0.5 1.4-1.3 0.5-0.9 0.5-1.9 0-1.1-0.5-1.9-0.5-0.8-1.4-1.3-0.9-0.5-2-0.5-1.2 0-2.1 0.5-0.9 0.5-1.4 1.3-0.5 0.8-0.5 1.9z"/><path class="k" d="m94.8 718.5v3.3h-15v4.6h-2.9v-12.5h2.9v4.6zm0-9.4v3.1h-18.2v-3.1h7.7l-0.4 0.4q-1.2-0.5-1.8-1.5-0.6-1.1-0.6-2.4 0-1.5 0.6-2.6 0.6-1.1 1.7-1.7 1.1-0.7 2.6-0.7h8.4v3.2h-7.7q-0.8 0-1.4 0.3-0.7 0.4-1 1-0.4 0.5-0.4 1.3 0 0.8 0.4 1.4 0.3 0.6 1 0.9 0.6 0.4 1.4 0.4zm0.3-17.3q0 2-0.9 3.5-0.9 1.5-2.5 2.4-1.5 0.8-3.4 0.8-2 0-3.5-0.8-1.5-0.9-2.4-2.4-0.9-1.5-0.9-3.3 0-1.5 0.5-2.7 0.5-1.1 1.4-2 0.9-0.8 2-1.2 1.2-0.4 2.5-0.4 0.3 0 0.7 0 0.3 0 0.6 0.1v10.1h-2.4v-8.3l1.1 1.5q-1.1-0.2-1.9 0.1-0.9 0.3-1.4 1.1-0.5 0.7-0.5 1.7 0 1 0.5 1.8 0.5 0.7 1.4 1.1 1 0.4 2.3 0.3 1.2 0.1 2.2-0.3 0.9-0.4 1.4-1.2 0.5-0.9 0.5-1.9 0-1.1-0.5-1.9-0.4-0.7-1.2-1.2l1.2-2.5q1 0.4 1.7 1.2 0.7 0.8 1.1 1.9 0.4 1.1 0.4 2.5zm0-21.5q0 2-0.7 3.6-0.7 1.6-1.9 2.8-1.3 1.2-2.9 1.9-1.7 0.7-3.7 0.7-2 0-3.7-0.7-1.7-0.6-2.9-1.8-1.3-1.3-1.9-2.9-0.7-1.6-0.7-3.6 0-1.9 0.6-3.4 0.7-1.5 1.8-2.6 1-1 2.3-1.5l1.3 2.9q-1.3 0.5-2.2 1.7-0.8 1.2-0.8 2.9 0 1.7 0.7 3 0.8 1.3 2.2 2 1.4 0.7 3.3 0.7 1.9 0 3.3-0.7 1.4-0.7 2.2-2 0.8-1.3 0.8-3 0-1.7-0.9-2.9-0.9-1.2-2.2-1.7l1.3-2.9q1.3 0.5 2.4 1.5 1 1.1 1.7 2.6 0.6 1.5 0.6 3.4zm0-16q0 1.9-0.9 3.5-0.8 1.6-2.4 2.5-1.5 0.9-3.5 0.9-2 0-3.5-0.9-1.5-0.9-2.4-2.5-0.9-1.6-0.9-3.5 0-1.9 0.9-3.5 0.9-1.5 2.4-2.5 1.5-0.9 3.5-0.9 2 0 3.5 0.9 1.6 1 2.4 2.5 0.9 1.6 0.9 3.5zm-2.8 0q0-1.1-0.6-1.9-0.5-0.8-1.3-1.2-1-0.5-2.1-0.5-1.1 0-2 0.5-0.9 0.4-1.4 1.2-0.5 0.8-0.5 1.9 0 1.1 0.5 1.9 0.5 0.8 1.4 1.3 0.9 0.4 2 0.4 1.1 0 2.1-0.4 0.8-0.5 1.3-1.3 0.6-0.8 0.6-1.9zm2.5-15.8v2.8l-13 5.2v-3.5l10.3-3.7v1.3l-10.3-3.8v-3.4zm0.3-12.8q0 2-0.9 3.5-0.9 1.5-2.5 2.4-1.6 0.8-3.5 0.8-1.9 0-3.4-0.8-1.6-0.9-2.5-2.4-0.9-1.4-0.9-3.3 0-1.5 0.5-2.7 0.6-1.1 1.4-1.9 0.9-0.9 2.1-1.3 1.1-0.4 2.4-0.4 0.4 0 0.7 0 0.4 0 0.6 0.1v10.1h-2.4v-8.3l1.2 1.5q-1.1-0.2-2 0.1-0.9 0.3-1.4 1.1-0.5 0.7-0.5 1.7 0 1 0.5 1.8 0.5 0.8 1.5 1.2 0.9 0.3 2.3 0.3 1.2 0 2.1-0.4 0.9-0.4 1.4-1.2 0.5-0.8 0.5-1.9 0-1.1-0.4-1.9-0.5-0.7-1.3-1.2l1.3-2.5q0.9 0.4 1.6 1.2 0.8 0.8 1.2 1.9 0.4 1.2 0.4 2.5z"/><path class="k" d="m368.2 1384q-1.8 0.8-3.6 0.9-1.9 0.1-3.6-0.5-1.6-0.6-3-1.8-1.4-1.3-2.2-3.1-0.8-1.8-0.9-3.6-0.1-1.8 0.6-3.5 0.6-1.7 1.8-3 1.3-1.3 3.1-2.2 1.8-0.8 3.7-0.9 1.8-0.1 3.5 0.5 1.6 0.6 3 1.8 1.3 1.2 2.2 3 0.8 1.8 0.9 3.7 0 1.8-0.6 3.5-0.6 1.6-1.9 3-1.2 1.3-3 2.2zm-1.3-2.7q1.2-0.6 2-1.5 0.8-0.9 1.2-2 0.4-1.1 0.3-2.3 0-1.3-0.6-2.5-0.6-1.2-1.5-2-0.8-0.9-2-1.3-1.1-0.4-2.2-0.4-1.2 0.1-2.4 0.6-1.2 0.6-2 1.4-0.8 0.9-1.2 2.1-0.4 1.1-0.3 2.3 0 1.2 0.6 2.4 0.5 1.3 1.4 2.1 0.9 0.9 2 1.3 1.1 0.4 2.4 0.4 1.1-0.1 2.3-0.6zm16.9 0.4l-2.8 1.3-7.6-16.2 2.7-1.2 1.1 2.3-0.5-0.4q0.1-1.3 0.9-2.3 0.8-1 2.2-1.7 1.7-0.7 3.4-0.5 1.8 0.2 3.2 1.2 1.4 1 2.2 2.8 0.8 1.7 0.7 3.5-0.1 1.7-1.1 3.2-1 1.4-2.7 2.2-1.3 0.6-2.6 0.6-1.3 0-2.4-0.7l0.2-0.8zm0.2-8.2q1-0.4 1.5-1.3 0.6-0.8 0.6-1.8 0.1-1-0.4-2-0.5-1.1-1.3-1.6-0.8-0.7-1.7-0.8-1-0.1-2 0.4-0.9 0.4-1.5 1.2-0.5 0.8-0.6 1.8 0 1 0.5 2.1 0.4 1 1.2 1.6 0.8 0.6 1.8 0.7 1 0.1 1.9-0.3zm15.3-3.9q-1.8 0.8-3.6 0.6-1.7-0.2-3.1-1.2-1.4-1.1-2.2-2.8-0.9-1.8-0.8-3.5 0.2-1.8 1.1-3.2 1-1.4 2.7-2.2 1.4-0.6 2.6-0.7 1.3 0 2.4 0.5 1.1 0.4 2 1.3 0.9 0.8 1.4 2 0.2 0.3 0.3 0.7 0.1 0.3 0.1 0.6l-9.1 4.2-1-2.1 7.5-3.5-0.9 1.6q-0.2-1.1-0.9-1.7-0.6-0.7-1.5-0.8-0.9-0.2-1.8 0.3-0.9 0.4-1.4 1.2-0.5 0.7-0.5 1.8 0.1 1 0.7 2.2 0.4 1.1 1.2 1.8 0.8 0.6 1.7 0.7 1 0.1 2-0.3 1-0.5 1.4-1.2 0.6-0.8 0.6-1.6h2.9q0 1-0.4 2-0.5 1-1.3 1.9-0.9 0.8-2.1 1.4zm10.5-5.2l-2.9 1.3-5.5-11.8 2.7-1.2 1.1 2.3-0.4-0.3q-0.1-1.3 0.6-2.3 0.7-1 1.9-1.6 1.3-0.6 2.6-0.5 1.3 0.1 2.3 0.9 1.1 0.7 1.7 2.1l3.5 7.6-2.8 1.3-3.3-6.9q-0.3-0.8-0.9-1.3-0.6-0.4-1.3-0.4-0.6-0.1-1.3 0.2-0.7 0.3-1.1 0.9-0.4 0.6-0.5 1.3 0 0.7 0.3 1.5zm21.1-9.8l-6.9 3.2-7.5-16.2 6.8-3.2q1.6-0.7 3-0.7 1.4 0 2.5 0.8 1.1 0.7 1.8 2.1 0.5 1.1 0.3 2.4-0.1 1.2-1.1 2.4l-0.6-1.3q1.4-0.1 2.4 0.2 1 0.4 1.6 1.1 0.7 0.7 1.1 1.6 1.1 2.3 0.2 4.4-0.9 2-3.6 3.2zm-7.3-5.5l2.2 4.7 4.1-1.9q1.2-0.6 1.6-1.5 0.4-1-0.1-2-0.5-1.1-1.5-1.4-1-0.4-2.1 0.2zm-3-6.4l1.8 3.8 4-1.9q0.9-0.4 1.2-1.2 0.3-0.8-0.1-1.7-0.4-0.8-1.2-1-0.8-0.3-1.7 0.1zm24.1 5.8q-1.7 0.8-3.5 0.7-1.8-0.2-3.3-1.2-1.5-1-2.3-2.8-0.8-1.8-0.6-3.5 0.2-1.8 1.2-3.3 1-1.4 2.8-2.3 1.7-0.8 3.5-0.6 1.8 0.1 3.3 1.1 1.5 1 2.3 2.8 0.8 1.8 0.6 3.6-0.2 1.8-1.2 3.2-1 1.5-2.8 2.3zm-1.2-2.6q1-0.5 1.5-1.2 0.5-0.8 0.6-1.8 0-1.1-0.5-2.1-0.4-1-1.2-1.6-0.8-0.6-1.8-0.8-0.9-0.1-1.9 0.3-1 0.5-1.5 1.3-0.5 0.8-0.6 1.8 0 1 0.5 2.1 0.4 1 1.2 1.6 0.8 0.6 1.8 0.7 0.9 0.1 1.9-0.3zm15.4-4q-1.7 0.8-3.5 0.7-1.8-0.2-3.3-1.2-1.5-1-2.3-2.8-0.8-1.7-0.7-3.5 0.3-1.8 1.3-3.3 1-1.4 2.8-2.3 1.7-0.8 3.5-0.6 1.8 0.1 3.3 1.1 1.5 1 2.3 2.8 0.8 1.8 0.6 3.6-0.2 1.8-1.2 3.3-1 1.4-2.8 2.2zm-1.2-2.6q1-0.4 1.5-1.2 0.5-0.8 0.6-1.8 0-1.1-0.5-2.1-0.5-1-1.3-1.6-0.7-0.6-1.7-0.7-0.9-0.2-1.9 0.3-1 0.4-1.5 1.2-0.5 0.8-0.6 1.8 0 1 0.5 2.1 0.4 1 1.2 1.6 0.8 0.6 1.8 0.7 0.9 0.2 1.9-0.3zm12.4-2.9l-2.9 1.4-7.6-16.5 2.8-1.3 5 10.8-1.2 0.1 2.9-8.4 3.5-1.6-2.2 6.8 7.8 5-3.3 1.5-6.7-4.4 1.5-1.1-1.8 5.5 0.1-2.2z"/><path class="k" d="m438.6 1446.4l-3.2 1.8-13.1-13 3-1.8 10.9 11.3-0.8 0.5-4.2-15.2 2.9-1.7 11 11.3-0.8 0.4-4.3-15.1 3-1.7 4.8 17.9-3.3 1.8-10.8-10.8 0.9-0.5zm19.7-11.1q-1.8 1-3.5 1-1.8 0-3.3-1-1.5-0.9-2.4-2.5-1-1.7-1.1-3.5 0-1.7 0.8-3.2 0.9-1.6 2.5-2.5 1.3-0.7 2.6-0.9 1.2-0.1 2.4 0.2 1.1 0.4 2.1 1.2 0.9 0.7 1.6 1.9 0.1 0.3 0.3 0.6 0.1 0.3 0.2 0.6l-8.7 5.1-1.2-2.1 7.1-4.2-0.7 1.7q-0.3-1-1.1-1.6-0.7-0.6-1.6-0.7-0.8 0-1.7 0.5-0.9 0.5-1.3 1.3-0.4 0.8-0.3 1.8 0.1 1 0.9 2.1 0.5 1.1 1.3 1.7 0.9 0.6 1.8 0.6 1 0.1 1.9-0.5 1-0.5 1.4-1.3 0.4-0.8 0.4-1.6l2.8-0.2q0.2 1-0.2 2-0.3 1-1.1 1.9-0.7 1-1.9 1.6zm9.9-6l-2.7 1.5-9.1-15.7 2.7-1.6zm8.2-4.3q-1.7 0.9-3.5 1-1.8-0.1-3.3-1-1.6-0.9-2.6-2.5-0.9-1.7-0.9-3.5 0-1.8 0.8-3.3 1-1.6 2.6-2.5 1.2-0.7 2.5-0.9 1.3-0.2 2.5 0.1 1.2 0.3 2.1 1.1l-1.8 2.5q-0.8-0.7-1.8-0.8-1.1-0.1-2 0.5-0.9 0.5-1.4 1.3-0.4 0.9-0.4 1.9 0.1 0.9 0.7 1.9 0.5 1 1.4 1.6 0.8 0.5 1.8 0.6 0.9 0 1.8-0.5 1-0.6 1.4-1.5 0.4-1 0.3-2l3-0.3q0.2 1.1-0.1 2.3-0.3 1.2-1.1 2.2-0.8 1.1-2 1.8zm12.7-7.4q-1.7 1-3.5 1-1.8 0-3.4-0.8-1.5-0.9-2.5-2.6-1-1.7-1-3.5 0.1-1.8 1-3.4 0.9-1.5 2.6-2.5 1.6-0.9 3.4-0.9 1.8-0.1 3.4 0.8 1.5 0.9 2.5 2.6 1 1.7 1 3.5-0.1 1.8-1 3.3-0.9 1.6-2.5 2.5zm-1.5-2.5q0.9-0.5 1.4-1.3 0.4-0.9 0.4-1.9-0.1-1-0.6-2-0.6-1-1.4-1.5-0.9-0.5-1.8-0.6-1 0-1.9 0.5-0.9 0.6-1.4 1.4-0.4 0.9-0.4 1.9 0 1 0.6 1.9 0.6 1 1.4 1.6 0.9 0.5 1.8 0.5 1 0.1 1.9-0.5zm12.1-3.9l-2.7 1.5-6.6-11.3 2.6-1.4 1.5 2.6-0.6-0.3q-0.3-1.4 0.2-2.5 0.6-1.2 1.9-1.9 1.4-0.8 2.9-0.7 1.4 0.1 2.4 1.1l-0.7 0.5q-0.2-1.6 0.4-2.9 0.6-1.3 2-2.1 1.2-0.6 2.5-0.6 1.2-0.1 2.3 0.6 1.1 0.6 1.8 1.9l4.2 7.3-2.7 1.6-3.8-6.7q-0.4-0.7-1-1.1-0.6-0.4-1.2-0.4-0.7 0-1.4 0.4-0.6 0.3-1 0.9-0.3 0.6-0.2 1.3 0 0.7 0.4 1.5l3.9 6.6-2.8 1.6-3.8-6.7q-0.4-0.7-1-1.1-0.6-0.4-1.3-0.4-0.6 0-1.3 0.4-0.6 0.3-0.9 0.9-0.4 0.6-0.3 1.3 0 0.7 0.4 1.4zm22-12.3q-1.7 1-3.5 1-1.7-0.1-3.2-1-1.6-0.9-2.5-2.6-1-1.7-1-3.4 0-1.8 0.8-3.3 0.8-1.5 2.4-2.4 1.3-0.8 2.6-0.9 1.3-0.2 2.4 0.2 1.2 0.4 2.1 1.1 1 0.8 1.6 1.9 0.2 0.3 0.3 0.7 0.2 0.3 0.2 0.6l-8.7 5-1.2-2.1 7.2-4.1-0.7 1.7q-0.4-1.1-1.1-1.6-0.7-0.6-1.6-0.7-0.9-0.1-1.8 0.4-0.8 0.5-1.3 1.4-0.4 0.8-0.3 1.8 0.2 1 0.9 2.1 0.6 1.1 1.4 1.7 0.8 0.6 1.8 0.6 0.9 0 1.9-0.5 0.9-0.6 1.3-1.3 0.5-0.8 0.5-1.7l2.8-0.2q0.1 1-0.2 2.1-0.4 1-1.1 1.9-0.8 0.9-2 1.6zm-45.3 50.8l-3.3 1.9-13.1-13.1 3.1-1.8 10.8 11.3-0.8 0.5-4.2-15.2 3-1.7 11 11.3-0.8 0.4-4.4-15 3.1-1.8 4.7 17.9-3.2 1.9-10.8-10.9 0.9-0.5zm17.6-9.9q-1.2 0.7-2.3 0.8-1.1 0.1-2-0.3-0.9-0.5-1.5-1.5-0.5-0.9-0.6-1.9 0-0.9 0.6-1.9 0.6-1 1.8-2l3.4-2.8 1.2 2.1-2.9 2.4q-0.7 0.6-0.9 1.2-0.2 0.6 0.2 1.2 0.3 0.6 0.9 0.7 0.7 0.1 1.4-0.3 0.8-0.5 1.2-1.2 0.5-0.8 0.5-1.6 0-0.9-0.5-1.7l-1.6-2.9q-0.5-0.7-1.3-0.9-0.9-0.1-1.8 0.4-0.9 0.5-1.3 1.4-0.4 0.8-0.3 1.8l-2.8 0.2q-0.2-1.1 0.1-2.2 0.4-1 1.1-2 0.8-0.9 1.9-1.6 1.4-0.8 2.8-0.9 1.3-0.1 2.5 0.5 1.1 0.5 1.8 1.7l4.3 7.6-2.6 1.5-1.1-2 0.6-0.4q0 1-0.3 1.9-0.4 0.8-1 1.5-0.6 0.7-1.5 1.2zm11.2-6.8l-2.8 1.6-9.1-15.7 2.8-1.6zm5.2-3l-2.7 1.6-9.1-15.8 2.7-1.5z"/><path class="k" d="m458.8 955h-3.3v-15h-4.6v-2.9h12.4v2.9h-4.5zm9.4 0h-3.1v-18.2h3.1v7.7l-0.4-0.4q0.4-1.2 1.5-1.8 1-0.6 2.4-0.6 1.5 0 2.6 0.6 1.1 0.6 1.7 1.7 0.6 1.1 0.6 2.6v8.4h-3.1v-7.7q0-0.8-0.3-1.4-0.4-0.7-1-1-0.6-0.4-1.3-0.4-0.8 0-1.4 0.4-0.6 0.3-0.9 1-0.4 0.6-0.4 1.4zm17.3 0.3q-2 0-3.5-0.9-1.5-0.9-2.4-2.5-0.8-1.5-0.8-3.4 0-2 0.8-3.5 0.9-1.5 2.3-2.4 1.5-0.9 3.4-0.9 1.5 0 2.6 0.5 1.2 0.5 2 1.4 0.9 0.9 1.3 2 0.4 1.2 0.4 2.5 0 0.3 0 0.7-0.1 0.3-0.2 0.6h-10v-2.4h8.3l-1.5 1.1q0.2-1.1-0.1-1.9-0.3-0.9-1.1-1.4-0.7-0.5-1.7-0.5-1 0-1.8 0.5-0.8 0.5-1.2 1.4-0.4 1-0.3 2.3-0.1 1.2 0.4 2.2 0.4 0.9 1.2 1.4 0.8 0.5 1.9 0.5 1.1 0 1.8-0.5 0.8-0.4 1.2-1.2l2.6 1.2q-0.4 1-1.2 1.7-0.8 0.7-2 1.1-1.1 0.4-2.4 0.4zm-39.5 20.7h-3.3v-17.8h6.7q1.8 0 3.2 0.6 1.4 0.7 2.2 2 0.8 1.2 0.8 3 0 1.8-0.8 3.1-0.8 1.2-2.2 1.9-1.4 0.6-3.2 0.6h-3.4zm0-15v5.6h3.4q0.9 0 1.6-0.4 0.6-0.3 1-1 0.4-0.6 0.4-1.4 0-0.8-0.4-1.4-0.4-0.7-1-1-0.7-0.4-1.6-0.4zm15.2 15h-3.1v-13h2.9v2.9l-0.2-0.4q0.4-1.5 1.4-2.1 1-0.6 2.4-0.6h0.7v2.8h-1.1q-1.4 0-2.2 0.9-0.8 0.8-0.8 2.3zm12.2 0.3q-1.9 0-3.5-0.9-1.5-0.9-2.5-2.5-0.9-1.5-0.9-3.5 0-1.9 0.9-3.5 1-1.5 2.5-2.4 1.6-0.9 3.5-0.9 2 0 3.5 0.9 1.6 0.9 2.5 2.4 0.9 1.6 0.9 3.5 0 2-0.9 3.5-1 1.6-2.5 2.5-1.6 0.9-3.5 0.9zm0-2.9q1.1 0 1.9-0.5 0.8-0.5 1.3-1.4 0.4-0.9 0.4-2.1 0-1.1-0.4-2-0.5-0.9-1.3-1.4-0.8-0.5-1.9-0.5-1 0-1.9 0.5-0.8 0.5-1.3 1.4-0.4 0.9-0.4 2 0 1.2 0.4 2.1 0.5 0.9 1.3 1.4 0.9 0.5 1.9 0.5zm15.1 2.6h-2.8l-4.4-13.1h3.3l3.3 9.9h-1.2l3.5-9.9h2.8l3.5 9.9h-1.2l3.3-9.9h3.3l-4.5 13.1h-2.8l-3.5-10.4h1z"/><path class="k" d="m607.9 1313.7l-2.7 1.8-8.3-12.5-3.9 2.5-1.6-2.4 10.4-6.9 1.6 2.4-3.8 2.5zm7.9-5.2l-2.6 1.8-10.1-15.2 2.7-1.7 4.2 6.4-0.6-0.1q-0.3-1.3 0.3-2.3 0.5-1.2 1.6-1.9 1.2-0.8 2.5-0.9 1.3-0.1 2.4 0.5 1.2 0.6 2 1.8l4.6 7-2.6 1.7-4.2-6.4q-0.5-0.7-1.1-1-0.7-0.3-1.3-0.3-0.7 0-1.4 0.5-0.6 0.4-0.9 1-0.3 0.6-0.3 1.3 0.1 0.7 0.6 1.5zm14.5-9.3q-1.6 1.1-3.4 1.1-1.8 0.1-3.3-0.7-1.6-0.9-2.6-2.4-1.1-1.7-1.3-3.4-0.1-1.8 0.6-3.3 0.8-1.6 2.3-2.6 1.3-0.8 2.5-1 1.3-0.3 2.5 0 1.1 0.3 2.1 1 1 0.7 1.7 1.8 0.2 0.3 0.4 0.6 0.2 0.4 0.2 0.6l-8.4 5.6-1.3-2 6.9-4.6-0.6 1.8q-0.4-1.1-1.2-1.6-0.7-0.6-1.6-0.6-0.9 0-1.8 0.6-0.8 0.5-1.1 1.4-0.4 0.8-0.2 1.8 0.2 1 1 2.1 0.6 1 1.4 1.6 0.9 0.5 1.9 0.5 0.9-0.1 1.8-0.7 0.9-0.6 1.3-1.3 0.4-0.8 0.3-1.7l2.8-0.4q0.2 1-0.1 2.1-0.2 1-0.9 2-0.7 0.9-1.9 1.7zm-14.3 35l-6.3 4.1-9.8-14.9 6.3-4.1q1.4-1 2.8-1.2 1.4-0.2 2.6 0.4 1.2 0.5 2.1 1.9 0.6 1 0.7 2.2 0 1.3-0.8 2.7l-0.8-1.3q1.3-0.3 2.4-0.1 1.1 0.2 1.8 0.8 0.8 0.6 1.3 1.4 1.5 2.1 0.8 4.3-0.6 2.1-3.1 3.8zm-8-4.4l2.9 4.3 3.8-2.5q1.1-0.7 1.3-1.7 0.3-1-0.4-2-0.6-1-1.7-1.2-1-0.1-2.1 0.6zm-3.8-5.9l2.3 3.5 3.7-2.5q0.8-0.5 1-1.3 0.2-0.9-0.4-1.7-0.5-0.7-1.3-0.9-0.8-0.1-1.6 0.5zm24.7 2.1q-1.6 1-3.4 1.2-1.8 0.1-3.4-0.7-1.7-0.8-2.7-2.4-1.1-1.7-1.2-3.4-0.1-1.8 0.7-3.4 0.8-1.6 2.5-2.7 1.6-1.1 3.4-1.2 1.7-0.1 3.4 0.7 1.6 0.7 2.7 2.4 1.1 1.6 1.1 3.4 0.1 1.8-0.7 3.4-0.8 1.6-2.4 2.7zm-1.6-2.4q0.9-0.6 1.3-1.5 0.4-0.9 0.2-1.8-0.1-1.1-0.7-2-0.6-1-1.5-1.4-0.9-0.5-1.8-0.5-1 0-1.9 0.6-0.9 0.6-1.2 1.5-0.4 0.8-0.4 1.9 0.1 0.9 0.8 1.9 0.6 0.9 1.5 1.4 0.9 0.5 1.8 0.5 1 0 1.9-0.6zm14-6.2l-2.3 1.5-11-8.4 2.8-1.8 8.2 6.4-1 0.6-2.5-10.1 2.3-1.6 8.4 6.4-1 0.6-2.7-10.1 2.8-1.8 3.4 13.4-2.3 1.5-8.7-6.6 0.9-0.6z"/><path class="k" d="m691.1 552.3q-1.8 0-3.2-0.6-1.5-0.7-2.5-1.8-1-1.1-1.5-2.6l2.7-1.2q0.6 1.6 1.9 2.5 1.2 0.8 2.7 0.8 0.9 0 1.5-0.2 0.7-0.3 1-0.8 0.4-0.5 0.4-1.2 0-0.7-0.5-1.2-0.5-0.6-1.4-0.9l-3.5-1.1q-2-0.6-3.1-1.9-1.1-1.3-1.1-3.1 0-1.5 0.8-2.7 0.8-1.1 2.1-1.8 1.4-0.7 3.1-0.7 1.6 0 3 0.6 1.3 0.6 2.3 1.6 1 1 1.4 2.3l-2.6 1.2q-0.6-1.3-1.6-2.1-1.1-0.7-2.5-0.7-0.8 0-1.4 0.3-0.6 0.2-1 0.7-0.3 0.5-0.3 1.2 0 0.7 0.4 1.3 0.5 0.6 1.5 0.9l3.3 1q2.1 0.7 3.2 1.9 1.1 1.3 1.1 3.1 0 1.5-0.8 2.7-0.8 1.1-2.2 1.8-1.4 0.7-3.2 0.7zm12 4.5h-3.2v-17.9h3v2.6l-0.3-0.6q0.7-1.1 1.8-1.6 1.2-0.6 2.7-0.6 1.8 0 3.3 0.9 1.5 0.9 2.4 2.4 0.9 1.6 0.9 3.5 0 1.9-0.9 3.4-0.9 1.6-2.4 2.5-1.4 0.9-3.3 0.9-1.5 0-2.7-0.6-1.1-0.5-1.8-1.6l0.5-0.6zm3.6-7.4q1.1 0 1.9-0.5 0.9-0.5 1.3-1.4 0.5-0.9 0.5-2 0-1.2-0.5-2.1-0.4-0.9-1.3-1.4-0.8-0.5-1.9-0.5-1 0-1.9 0.5-0.8 0.5-1.3 1.4-0.4 0.9-0.4 2.1 0 1.1 0.4 2 0.5 0.9 1.3 1.4 0.9 0.5 1.9 0.5zm12.5 2.6h-3.1v-18.2h3.1zm6.1 0h-3.2v-13h3.2zm0-14.6h-3.2v-3.3h3.2zm8.8 14.6q-2.2 0-3.4-1.2-1.2-1.2-1.2-3.4v-5.8h-2.3v-2.8h0.3q0.9 0 1.4-0.5 0.6-0.5 0.6-1.4v-1h3.1v2.9h3v2.8h-3v5.6q0 0.7 0.2 1.1 0.3 0.5 0.8 0.7 0.5 0.3 1.2 0.3 0.2 0 0.4 0 0.3-0.1 0.5-0.1v2.7q-0.4 0-0.8 0.1-0.4 0-0.8 0zm-38.5 22.2q-1.9 0-3.6-0.7-1.6-0.7-2.8-2-1.2-1.2-1.9-2.9-0.6-1.7-0.6-3.7 0-1.9 0.6-3.6 0.7-1.7 1.9-3 1.2-1.2 2.8-1.9 1.7-0.7 3.6-0.7 1.9 0 3.4 0.7 1.6 0.6 2.6 1.7 1.1 1.1 1.5 2.3l-2.9 1.4q-0.5-1.3-1.7-2.2-1.2-0.9-2.9-0.9-1.7 0-3 0.8-1.2 0.8-2 2.2-0.7 1.4-0.7 3.2 0 1.9 0.7 3.3 0.8 1.4 2 2.2 1.3 0.8 3 0.8 1.7 0 2.9-0.9 1.2-0.8 1.7-2.2l2.9 1.4q-0.4 1.3-1.5 2.3-1 1.1-2.6 1.7-1.5 0.7-3.4 0.7zm13.1-0.3h-3.2v-13.1h3.2zm0-14.5h-3.2v-3.3h3.2zm8.8 14.6q-2.2 0-3.4-1.2-1.2-1.2-1.2-3.4v-5.8h-2.3v-2.8h0.3q0.9 0 1.5-0.5 0.5-0.5 0.5-1.4v-1.1h3.1v3h3v2.8h-3v5.6q0 0.7 0.2 1.1 0.3 0.5 0.8 0.7 0.5 0.3 1.2 0.3 0.2 0 0.4-0.1 0.3 0 0.5 0v2.7q-0.4 0-0.8 0.1-0.4 0-0.8 0zm5.6 5.2q-0.6 0-1.1-0.1-0.5-0.1-0.9-0.3v-2.6q0.3 0.1 0.8 0.1 0.4 0.1 0.8 0.1 1.1 0 1.6-0.5 0.5-0.5 0.8-1.3l0.9-2v2.6l-5.7-14.4h3.4l3.9 10.6h-1.2l4-10.6h3.4l-5.7 14.4q-0.5 1.3-1.2 2.2-0.7 0.8-1.7 1.3-0.9 0.5-2.1 0.5z"/><path fill-rule="evenodd" class="l" d="m48.3 903.1l223.3-7.6z"/><path fill-rule="evenodd" class="l" d="m372.9 890.5l-0.7-50.2z"/><path fill-rule="evenodd" class="l" d="m332.2 1018.4l38.2-51.6z"/><path fill-rule="evenodd" class="l" d="m772.2 620l103.1-96z"/><path fill-rule="evenodd" class="l" d="m738.6 655.5l9.7-20.2z"/><path fill-rule="evenodd" class="l" d="m698 934.5l25.6 17.7z"/><path fill-rule="evenodd" class="l" d="m749.5 963.5l127.7 1.3z"/><path fill-rule="evenodd" class="l" d="m517.3 1234l15.6 35z"/><path fill-rule="evenodd" class="l" d="m546.3 1303.4l43.7 61z"/><path fill-rule="evenodd" class="l" d="m661 1395.2l18.4 28.9z"/><path fill-rule="evenodd" class="l" d="m384.3 1505.9l21 36.8z"/><path fill-rule="evenodd" class="l" d="m241.6 1356.2l99.3 102.8z"/><path fill-rule="evenodd" class="l" d="m208.7 1284.7l4.5 36.7z"/><path fill-rule="evenodd" class="l" d="m403.5 1404.2l98.6-43.9z"/></svg>