<svg version="1.2" xmlns="http://www.w3.org/2000/svg" viewBox="0 0 865 1122" width="770" height="1000"><style>.a{fill:#9a969e;stroke:#fff;stroke-linecap:round;stroke-linejoin:bevel;stroke-width:4}.b{fill:#804ba3;stroke:#fff;stroke-linecap:round;stroke-linejoin:bevel;stroke-width:4}.c{fill:#eb3131;stroke:#fff;stroke-linecap:round;stroke-linejoin:round;stroke-width:4}.d{fill:#fff}</style><path fill-rule="evenodd" class="a" d="m180 590h-24v-461l213.8-4.3-14.3 32.7-175.5 0.6z"/><path fill-rule="evenodd" class="a" d="m171 1033l84-64 77-5 98 17 97-84-2-19.3-332 5.3-102 104 66 114z"/><path fill-rule="evenodd" class="a" d="m700 1115l-4-294-25-130-103-110-119-30-41-36 1-26 390 25-31 600z"/><path fill-rule="evenodd" class="a" d="m697.6 96.4h19l-0.6 223.6h-16.5z"/><path fill-rule="evenodd" class="b" d="m17.1 3l411.2 2.8-1 22.6-60.4 103.2-209.9-1.6-1 418 138.4 136.5 138.6-3 90 67.5 2.1 128.8-92.1 81.3-106.6-14-73.4 2.9-96.4 73.2-1.7 79.2-136.8 0.3z"/><path fill-rule="evenodd" class="b" d="m714.3 96.6l134.7-1.3v1017.5l-133.1 2.6-2-295.2-19.9-136.2-120-125-109-24-57.9-47-0.9-38.7 36.4-52.4 59-7.7 77-0.3 137.5-79.2z"/><path fill-rule="evenodd" class="c" d="m1 407.3h34.7z"/><path fill-rule="evenodd" class="c" d="m67.3 407.2l36.7-0.1z"/><path fill-rule="evenodd" class="c" d="m138.3 407.2l36.7-0.1z"/><path fill-rule="evenodd" class="c" d="m295.5 668.1l0.5 37.1z"/><path fill-rule="evenodd" class="c" d="m319.6 837.5l47.5 68.1z"/><path fill-rule="evenodd" class="c" d="m694.8 822.8l33.6-1.9z"/><path fill-rule="evenodd" class="c" d="m774.6 818.5l60.5 0.3z"/><path fill-rule="evenodd" class="c" d="m568.9 568l11.7-24z"/><path fill-rule="evenodd" class="c" d="m623.3 416.4l-0.4 96.2z"/><path fill-rule="evenodd" class="c" d="m646.8 460.4l180.9 0.8z"/><path fill-rule="evenodd" class="c" d="m575.6 376l6.9 25.9z"/><path class="d" d="m114.2 670h-3.3v-15h-4.6v-2.9h12.5v2.9h-4.6zm9.5 0h-3.2v-18.2h3.2v7.7l-0.5-0.4q0.5-1.2 1.5-1.8 1.1-0.6 2.5-0.6 1.4 0 2.5 0.6 1.1 0.6 1.8 1.7 0.6 1.1 0.6 2.6v8.4h-3.2v-7.7q0-0.8-0.3-1.4-0.3-0.7-0.9-1-0.6-0.4-1.4-0.4-0.8 0-1.4 0.4-0.6 0.3-0.9 1-0.3 0.6-0.3 1.4zm17.2 0.3q-2 0-3.5-0.9-1.5-0.9-2.3-2.5-0.9-1.5-0.9-3.4 0-2 0.9-3.5 0.8-1.5 2.3-2.4 1.5-0.9 3.3-0.9 1.5 0 2.7 0.5 1.2 0.5 2 1.4 0.8 0.9 1.2 2 0.5 1.2 0.5 2.5 0 0.3-0.1 0.7 0 0.3-0.1 0.6h-10.1v-2.4h8.3l-1.5 1.1q0.2-1.1-0.1-1.9-0.3-0.9-1.1-1.4-0.7-0.5-1.7-0.5-1 0-1.8 0.5-0.7 0.5-1.1 1.4-0.4 1-0.3 2.3-0.1 1.2 0.3 2.2 0.4 0.9 1.2 1.4 0.9 0.5 2 0.5 1 0 1.8-0.5 0.7-0.4 1.2-1.2l2.5 1.2q-0.4 1-1.2 1.7-0.8 0.7-1.9 1.1-1.1 0.4-2.5 0.4zm-37.7 21.7h-3.8l-4.8-17.8h3.6l3.7 15.2h-0.9l3.9-15.2h3.4l3.9 15.2h-0.9l3.8-15.2h3.5l-4.8 17.8h-3.7l-4-14.8h1.1zm20.1 0.3q-1.4 0-2.4-0.5-1-0.4-1.5-1.3-0.6-0.8-0.6-1.9 0-1.1 0.5-2 0.5-0.8 1.5-1.4 1-0.6 2.5-0.8l4.3-0.7v2.4l-3.7 0.6q-0.9 0.2-1.4 0.6-0.4 0.4-0.4 1.1 0 0.7 0.5 1.1 0.5 0.4 1.3 0.4 0.9 0 1.7-0.4 0.8-0.4 1.2-1.2 0.4-0.7 0.4-1.6v-3.4q0-0.8-0.7-1.4-0.6-0.5-1.7-0.5-1 0-1.8 0.5-0.8 0.5-1.1 1.4l-2.6-1.2q0.4-1.1 1.2-1.8 0.8-0.8 2-1.2 1.1-0.4 2.4-0.4 1.6 0 2.9 0.6 1.2 0.5 1.8 1.6 0.7 1 0.7 2.4v8.7h-2.9v-2.2l0.6-0.1q-0.5 0.9-1.2 1.4-0.7 0.6-1.5 0.9-0.9 0.3-2 0.3zm16.4-0.3h-2.8l-5.1-13h3.4l3.8 10.2h-1.3l3.7-10.2h3.5zm12.8 0.2q-2 0-3.5-0.9-1.6-0.9-2.4-2.4-0.8-1.6-0.8-3.5 0-2 0.8-3.5 0.9-1.5 2.3-2.4 1.5-0.9 3.3-0.9 1.6 0 2.7 0.5 1.2 0.5 2 1.4 0.8 0.9 1.3 2 0.4 1.2 0.4 2.5 0 0.3 0 0.7-0.1 0.4-0.2 0.6h-10v-2.4h8.3l-1.5 1.1q0.2-1.1-0.2-1.9-0.3-0.9-1-1.4-0.7-0.5-1.8-0.5-0.9 0-1.7 0.5-0.8 0.5-1.2 1.4-0.4 1-0.3 2.3-0.1 1.2 0.3 2.2 0.5 0.9 1.3 1.4 0.8 0.5 1.9 0.5 1.1 0 1.8-0.5 0.8-0.4 1.2-1.2l2.6 1.3q-0.4 0.9-1.2 1.6-0.8 0.7-2 1.1-1.1 0.4-2.4 0.4z"/><path class="d" d="m96.8 208.9v7.5h-17.9v-7.5q0-1.8 0.6-3 0.6-1.3 1.8-2 1.1-0.7 2.7-0.7 1.2 0 2.3 0.7 1 0.6 1.7 2.1h-1.5q0.5-1.3 1.3-2.1 0.7-0.8 1.6-1.1 0.9-0.3 1.9-0.3 2.6 0 4.1 1.7 1.4 1.7 1.4 4.7zm-8.1 4.3h5.2v-4.7q0-1.2-0.7-2-0.7-0.7-1.9-0.7-1.1 0-1.9 0.7-0.7 0.8-0.7 2zm-7 0h4.2v-4.4q0-1-0.6-1.6-0.6-0.6-1.6-0.6-0.9 0-1.4 0.6-0.6 0.6-0.6 1.6zm15.1-16.2v3.1h-13.1v-2.9h2.9l-0.4 0.2q-1.4-0.4-2-1.4-0.6-1-0.6-2.3v-0.8h2.8v1.1q0 1.4 0.8 2.2 0.8 0.8 2.3 0.8zm0.3-9.8q0 1.4-0.4 2.4-0.5 1-1.3 1.5-0.9 0.6-2 0.6-1.1 0-1.9-0.5-0.9-0.5-1.5-1.5-0.6-1-0.8-2.5l-0.7-4.3h2.4l0.6 3.7q0.2 0.9 0.6 1.4 0.5 0.4 1.2 0.4 0.6 0 1-0.5 0.4-0.5 0.4-1.3 0-0.9-0.4-1.7-0.4-0.8-1.2-1.2-0.7-0.4-1.6-0.4h-3.4q-0.8 0-1.4 0.7-0.5 0.6-0.5 1.7 0 1 0.5 1.8 0.6 0.8 1.4 1.1l-1.2 2.6q-1-0.4-1.8-1.2-0.8-0.8-1.2-2-0.4-1.1-0.4-2.4 0-1.6 0.6-2.9 0.6-1.2 1.6-1.8 1-0.7 2.4-0.7h8.7v2.9h-2.2l-0.1-0.6q0.9 0.5 1.5 1.2 0.5 0.7 0.8 1.5 0.3 0.9 0.3 2zm-0.3-13.1v3.2h-13v-3.2zm-14.5 0v3.2h-3.4v-3.2zm14.5-6v3.1h-18.2v-3.1zm0-6.1v3.2h-18.1v-3.2zm0.3-9.1q0 2-0.9 3.5-1 1.6-2.5 2.4-1.6 0.8-3.5 0.8-1.9 0-3.5-0.8-1.5-0.9-2.4-2.3-0.9-1.5-0.9-3.3 0-1.6 0.5-2.7 0.5-1.2 1.4-2 0.9-0.8 2.1-1.3 1.1-0.4 2.4-0.4 0.4 0 0.7 0 0.4 0.1 0.6 0.2v10h-2.4v-8.3l1.2 1.5q-1.1-0.2-2 0.1-0.9 0.4-1.4 1.1-0.5 0.7-0.5 1.8 0 0.9 0.5 1.7 0.5 0.8 1.5 1.2 0.9 0.4 2.2 0.3 1.2 0.1 2.2-0.3 0.9-0.5 1.4-1.3 0.5-0.8 0.5-1.9 0-1.1-0.5-1.8-0.4-0.8-1.2-1.2l1.3-2.6q0.9 0.4 1.6 1.2 0.7 0.8 1.2 2 0.4 1.1 0.4 2.4zm-0.3-19.5v3.3h-15v4.6h-2.9v-12.4h2.9v4.5zm0-8v3.2h-13.1v-3h2.9l-0.4 0.3q-1.5-0.5-2-1.4-0.6-1-0.6-2.4v-0.8h2.8v1.2q0 1.3 0.8 2.1 0.8 0.8 2.3 0.8zm0.3-9.8q0 1.4-0.5 2.4-0.4 1-1.3 1.6-0.8 0.5-2 0.5-1 0-1.9-0.4-0.8-0.5-1.4-1.5-0.6-1-0.8-2.6l-0.7-4.3h2.4l0.6 3.7q0.2 1 0.6 1.4 0.4 0.5 1.1 0.5 0.7 0 1.1-0.5 0.4-0.6 0.4-1.3 0-1-0.4-1.8-0.4-0.7-1.2-1.1-0.7-0.5-1.6-0.5h-3.4q-0.8 0-1.4 0.7-0.6 0.7-0.6 1.7 0 1 0.6 1.8 0.5 0.8 1.4 1.2l-1.2 2.5q-1.1-0.4-1.8-1.2-0.8-0.8-1.2-1.9-0.4-1.2-0.4-2.5 0-1.6 0.6-2.8 0.5-1.2 1.6-1.9 1-0.7 2.4-0.7h8.7v3h-2.2l-0.1-0.7q0.9 0.5 1.4 1.2 0.6 0.7 0.9 1.6 0.3 0.9 0.3 1.9zm-0.3-13.1v3.2h-13.1v-3.2zm-14.5 0v3.2h-3.3v-3.2zm14.5-6v3.1h-18.2v-3.1z"/><path class="d" d="m480.4 479h-3.8l-6.2-17.9h3.5l4.9 14.8h-0.7l4.9-14.8h3.6zm13.1 0.3q-1.9 0-3.5-0.9-1.5-0.9-2.5-2.4-0.9-1.5-0.9-3.5 0-2 0.9-3.5 1-1.5 2.5-2.4 1.6-0.9 3.5-0.9 1.9 0 3.5 0.9 1.6 0.9 2.5 2.4 0.9 1.5 0.9 3.5 0 2-0.9 3.5-1 1.5-2.5 2.4-1.6 0.9-3.5 0.9zm0-2.9q1.1 0 1.9-0.5 0.8-0.5 1.2-1.4 0.5-0.9 0.5-2 0-1.2-0.5-2-0.4-0.9-1.2-1.4-0.8-0.5-1.9-0.5-1.1 0-1.9 0.5-0.8 0.5-1.3 1.4-0.4 0.8-0.4 2 0 1.1 0.4 2 0.5 0.9 1.3 1.4 0.8 0.5 1.9 0.5zm10.6 7.9q-0.5 0-1 0-0.5-0.1-0.9-0.3v-2.7q0.3 0.1 0.7 0.2 0.5 0 0.9 0 1 0 1.5-0.5 0.5-0.5 0.9-1.3l0.9-2-0.1 2.6-5.7-14.3h3.4l4 10.6h-1.2l4-10.6h3.4l-5.7 14.3q-0.5 1.3-1.2 2.2-0.8 0.9-1.7 1.4-1 0.4-2.2 0.4zm16-5q-1.4 0-2.4-0.4-1-0.5-1.6-1.3-0.5-0.9-0.5-2 0-1.1 0.5-2 0.5-0.8 1.5-1.4 1-0.6 2.5-0.8l4.3-0.7v2.4l-3.7 0.6q-0.9 0.2-1.4 0.6-0.4 0.4-0.4 1.1 0 0.7 0.5 1.1 0.5 0.4 1.3 0.4 0.9 0 1.7-0.4 0.8-0.4 1.2-1.2 0.4-0.7 0.4-1.6v-3.4q0-0.8-0.7-1.4-0.6-0.5-1.7-0.5-1 0-1.8 0.5-0.8 0.5-1.1 1.4l-2.6-1.2q0.4-1 1.2-1.8 0.8-0.8 2-1.2 1.1-0.4 2.4-0.4 1.6 0 2.8 0.6 1.3 0.6 1.9 1.6 0.7 1 0.7 2.4v8.7h-2.9v-2.2l0.6-0.1q-0.5 0.9-1.2 1.5-0.7 0.5-1.5 0.8-0.9 0.3-2 0.3zm16.3 5q-1.5 0-2.7-0.5-1.3-0.5-2.2-1.3-0.9-0.9-1.3-2l2.9-1.1q0.3 0.9 1.2 1.5 0.8 0.5 2.1 0.5 0.9 0 1.7-0.3 0.7-0.4 1.1-1.1 0.4-0.7 0.4-1.6v-3l0.6 0.7q-0.7 1.2-1.8 1.8-1.1 0.6-2.5 0.6-1.9 0-3.3-0.8-1.5-0.9-2.3-2.4-0.8-1.4-0.8-3.2 0-1.9 0.8-3.3 0.8-1.5 2.3-2.3 1.4-0.8 3.2-0.8 1.4 0 2.5 0.6 1.2 0.6 1.9 1.8l-0.4 0.7v-2.8h3v12.4q0 1.7-0.9 3-0.8 1.4-2.2 2.1-1.4 0.8-3.3 0.8zm-0.2-8.7q1 0 1.8-0.4 0.8-0.5 1.2-1.3 0.4-0.8 0.4-1.8 0-1-0.4-1.8-0.5-0.8-1.2-1.3-0.8-0.4-1.8-0.4-0.9 0-1.7 0.4-0.8 0.5-1.3 1.3-0.4 0.8-0.4 1.8 0 1 0.4 1.8 0.5 0.8 1.2 1.2 0.8 0.5 1.8 0.5zm15.7 3.7q-2 0-3.5-0.9-1.6-0.9-2.4-2.5-0.8-1.5-0.8-3.4 0-2 0.8-3.5 0.9-1.5 2.3-2.4 1.5-0.9 3.3-0.9 1.6 0 2.7 0.5 1.2 0.5 2 1.4 0.8 0.9 1.3 2 0.4 1.1 0.4 2.5 0 0.3 0 0.7-0.1 0.3-0.2 0.6h-10v-2.4h8.3l-1.5 1.1q0.2-1.1-0.1-2-0.4-0.8-1.1-1.3-0.7-0.5-1.8-0.5-0.9 0-1.7 0.5-0.8 0.5-1.2 1.4-0.4 0.9-0.3 2.3-0.1 1.2 0.3 2.1 0.5 0.9 1.3 1.4 0.8 0.5 1.9 0.5 1.1 0 1.8-0.4 0.8-0.5 1.2-1.2l2.6 1.2q-0.4 1-1.2 1.7-0.8 0.7-2 1.1-1.1 0.4-2.4 0.4zm11.6-0.3h-3.1v-13h2.9v2.9l-0.2-0.5q0.4-1.4 1.4-2 1-0.6 2.4-0.6h0.7v2.8h-1.1q-1.3 0-2.2 0.8-0.8 0.9-0.8 2.3z"/><path class="d" d="m773 244.3v-7.6h17.9v7.6q0 1.7-0.6 3-0.6 1.3-1.8 1.9-1.1 0.7-2.7 0.7-1.2 0-2.3-0.6-1-0.7-1.7-2.1h1.5q-0.5 1.3-1.3 2.1-0.7 0.7-1.6 1-0.9 0.3-1.9 0.3-2.6 0-4.1-1.7-1.4-1.6-1.4-4.6zm8.1-4.3h-5.2v4.6q0 1.3 0.7 2 0.7 0.8 1.9 0.8 1.1 0 1.9-0.8 0.7-0.7 0.7-2zm7 0h-4.2v4.4q0 1 0.6 1.6 0.6 0.6 1.6 0.6 0.9 0 1.4-0.6 0.6-0.6 0.6-1.6zm-15.1 16.2v-3.1h18.2v3.1zm-0.3 7.6q0-1.5 0.7-2.6 0.6-1.1 1.8-1.7 1.2-0.6 2.8-0.6h8v3.1h-7.7q-0.8 0-1.4 0.3-0.6 0.4-1 1-0.3 0.6-0.3 1.4 0 0.7 0.3 1.3 0.4 0.6 1 1 0.6 0.3 1.5 0.3h7.6v3.1h-13v-2.9h2.5l-0.4 0.2q-1.2-0.4-1.8-1.5-0.6-1-0.6-2.4zm0 15.8q0-2 0.9-3.6 0.9-1.5 2.5-2.3 1.5-0.9 3.4-0.9 2 0 3.5 0.9 1.5 0.9 2.4 2.3 0.9 1.5 0.9 3.3 0 1.6-0.5 2.7-0.5 1.2-1.4 2-0.9 0.8-2 1.3-1.2 0.4-2.5 0.4-0.3 0-0.7-0.1-0.3 0-0.6-0.1v-10.1h2.4v8.3l-1.1-1.4q1.1 0.2 1.9-0.2 0.9-0.3 1.4-1 0.5-0.7 0.5-1.8 0-1-0.5-1.7-0.5-0.8-1.4-1.2-1-0.4-2.3-0.3-1.2-0.1-2.1 0.3-1 0.5-1.5 1.3-0.5 0.8-0.5 1.9 0 1.1 0.5 1.8 0.5 0.8 1.2 1.2l-1.2 2.6q-1-0.4-1.7-1.2-0.7-0.9-1.1-2-0.4-1.1-0.4-2.4zm0 19.4q0-1.7 0.6-3.2 0.6-1.4 1.7-2.5 1.2-1 2.6-1.5l1.2 2.7q-1.5 0.7-2.4 1.9-0.9 1.2-0.9 2.8 0 0.8 0.3 1.4 0.3 0.7 0.8 1 0.4 0.4 1.1 0.4 0.8 0 1.3-0.5 0.5-0.5 0.8-1.4l1.1-3.4q0.7-2.1 2-3.2 1.3-1 3-1 1.6 0 2.7 0.7 1.2 0.8 1.9 2.1 0.6 1.4 0.6 3.2 0 1.6-0.5 2.9-0.6 1.4-1.6 2.3-1 1-2.3 1.5l-1.2-2.7q1.3-0.5 2-1.6 0.8-1.1 0.8-2.4 0-0.9-0.3-1.5-0.3-0.6-0.8-1-0.5-0.3-1.1-0.3-0.8 0-1.3 0.5-0.6 0.5-0.9 1.4l-1 3.3q-0.7 2.2-2 3.2-1.2 1.1-3 1.1-1.5 0-2.7-0.8-1.2-0.8-1.8-2.2-0.7-1.4-0.7-3.2zm0.3 12v-3.1h18.1v3.1h-11.9l0.4-1.2 6.4 6.2v3.9l-5.2-4.9-7.8 5v-3.6l6.7-4.3 0.4 1.9-4.2-4 1.9 1zm-5.3 12.3q0-0.5 0.1-1 0.1-0.5 0.3-0.9h2.6q-0.1 0.3-0.1 0.7-0.1 0.5-0.1 0.8 0 1.1 0.5 1.6 0.5 0.5 1.3 0.9l2 0.8h-2.6l14.4-5.7v3.4l-10.6 4v-1.2l10.6 3.9v3.4l-14.4-5.6q-1.3-0.5-2.2-1.3-0.9-0.7-1.3-1.6-0.5-1-0.5-2.2z"/><path class="d" d="m777.9 940.7v-3.8l17.8-4.8v3.5l-15.2 3.8v-0.9l15.2 3.9v3.4l-15.2 3.9v-0.9l15.2 3.8v3.5l-17.8-4.8v-3.8l14.8-3.9v1zm-0.3 22.6q0-2 0.9-3.5 0.9-1.6 2.5-2.4 1.5-0.8 3.4-0.8 2 0 3.5 0.8 1.6 0.9 2.4 2.3 0.9 1.5 0.9 3.3 0 1.6-0.5 2.7-0.5 1.2-1.4 2-0.9 0.8-2 1.3-1.1 0.4-2.5 0.4-0.3 0-0.6 0-0.4-0.1-0.7-0.2v-10h2.4v8.3l-1.1-1.5q1.1 0.2 2-0.1 0.8-0.4 1.3-1.1 0.5-0.7 0.5-1.8 0-0.9-0.5-1.7-0.4-0.8-1.4-1.2-0.9-0.4-2.3-0.3-1.2-0.1-2.1 0.3-0.9 0.5-1.4 1.3-0.5 0.8-0.5 1.9 0 1.1 0.4 1.8 0.5 0.8 1.2 1.2l-1.2 2.6q-0.9-0.4-1.7-1.2-0.7-0.8-1.1-2-0.4-1.1-0.4-2.4zm0.3 11.6v-3.1h18.2v3.1zm-0.3 9.2q0-1.9 0.9-3.5 0.9-1.5 2.4-2.4 1.6-0.9 3.5-0.9 2 0 3.5 0.9 1.5 0.9 2.4 2.4 0.9 1.6 0.9 3.5 0 1.4-0.5 2.6-0.5 1.2-1.3 2.1-0.9 0.9-2.1 1.2l-1.2-2.7q1-0.4 1.6-1.2 0.6-0.9 0.6-2 0-1-0.5-1.8-0.5-0.8-1.4-1.3-0.9-0.4-2-0.4-1.2 0-2.1 0.4-0.8 0.5-1.3 1.3-0.6 0.8-0.6 1.8 0 1.1 0.6 2 0.6 0.8 1.7 1.2l-1.3 2.7q-1.1-0.3-2-1.2-0.8-0.9-1.4-2.1-0.4-1.2-0.4-2.6zm0 14.7q0-1.9 0.9-3.5 0.8-1.6 2.4-2.5 1.5-0.9 3.5-0.9 2 0 3.5 0.9 1.5 0.9 2.4 2.5 0.9 1.6 0.9 3.5 0 1.9-0.9 3.5-0.9 1.5-2.4 2.5-1.5 0.9-3.5 0.9-2 0-3.5-0.9-1.6-1-2.4-2.5-0.9-1.6-0.9-3.5zm2.8 0q0 1.1 0.6 1.9 0.5 0.8 1.3 1.2 1 0.5 2.1 0.5 1.1 0 2-0.5 0.9-0.4 1.4-1.2 0.5-0.8 0.5-1.9 0-1.1-0.5-1.9-0.5-0.8-1.4-1.3-0.9-0.4-2-0.4-1.1 0-2.1 0.4-0.8 0.5-1.3 1.3-0.6 0.8-0.6 1.9zm-2.5 12.4v-3.1h13v2.9h-3l0.5-0.3q1.4 0.3 2.1 1.4 0.7 1.1 0.7 2.6 0 1.6-0.8 2.8-0.9 1.2-2.2 1.6l-0.1-0.9q1.5 0.6 2.3 1.8 0.8 1.2 0.8 2.8 0 1.3-0.6 2.4-0.6 1.1-1.8 1.8-1.1 0.6-2.5 0.6h-8.4v-3.2h7.6q0.9 0 1.5-0.3 0.6-0.3 1-0.8 0.3-0.6 0.3-1.4 0-0.7-0.3-1.3-0.4-0.6-1-0.9-0.6-0.3-1.5-0.3h-7.6v-3.1h7.6q0.9 0 1.5-0.4 0.6-0.3 1-0.8 0.3-0.6 0.3-1.4 0-0.7-0.3-1.3-0.4-0.6-1-0.9-0.6-0.3-1.5-0.3zm-0.3 25.2q0-2 0.9-3.5 0.9-1.5 2.5-2.3 1.6-0.9 3.5-0.9 1.9 0 3.4 0.9 1.6 0.8 2.5 2.3 0.9 1.5 0.9 3.3 0 1.5-0.5 2.7-0.6 1.2-1.4 2-0.9 0.8-2.1 1.2-1.1 0.5-2.4 0.5-0.4 0-0.7-0.1-0.4 0-0.6-0.1v-10.1h2.4v8.3l-1.2-1.5q1.1 0.2 2-0.1 0.9-0.3 1.4-1.1 0.5-0.7 0.5-1.7 0-1-0.5-1.8-0.5-0.7-1.5-1.1-0.9-0.4-2.3-0.3-1.2-0.1-2.1 0.3-0.9 0.4-1.4 1.2-0.5 0.9-0.5 2 0 1 0.4 1.8 0.5 0.8 1.3 1.2l-1.3 2.5q-0.9-0.4-1.6-1.2-0.8-0.8-1.2-1.9-0.4-1.1-0.4-2.5zm-21.3-64.7v-3.7l17.9-4.8v3.5l-15.2 3.8v-1l15.2 4v3.4l-15.2 3.9v-0.9l15.2 3.7v3.5l-17.9-4.8v-3.7l14.8-4v1.1zm-0.2 20.1q0-1.3 0.4-2.3 0.5-1.1 1.3-1.6 0.9-0.6 2-0.6 1.1 0 1.9 0.5 0.9 0.5 1.5 1.5 0.5 1 0.8 2.6l0.7 4.2h-2.4l-0.7-3.6q-0.1-1-0.6-1.4-0.4-0.5-1.1-0.5-0.7 0-1.1 0.5-0.3 0.5-0.3 1.3 0 1 0.4 1.7 0.4 0.8 1.1 1.2 0.8 0.4 1.7 0.4h3.3q0.9 0 1.4-0.6 0.6-0.7 0.6-1.8 0-1-0.6-1.8-0.5-0.7-1.4-1.1l1.3-2.6q1 0.4 1.8 1.2 0.7 0.9 1.2 2 0.4 1.1 0.4 2.5 0 1.6-0.6 2.8-0.6 1.2-1.6 1.9-1.1 0.7-2.5 0.7h-8.7v-3h2.3v0.7q-0.8-0.5-1.4-1.2-0.5-0.7-0.9-1.6-0.2-0.9-0.2-2zm0.2 13.1v-3.1h18.2v3.1zm0 6.1v-3.2h18.2v3.2z"/><path class="d" d="m772 627.6v-3.3h17.9v3.3h-9.3l0.3-0.9 9 7.6v4.1l-8.5-7.1 2.3 0.2-11.7 7.2v-3.9l7.9-4.8-2.9-2.4zm-5.3 13.6q0-0.5 0.1-1 0.1-0.5 0.3-0.9h2.6q-0.1 0.3-0.1 0.7-0.1 0.5-0.1 0.9 0 1.1 0.5 1.5 0.5 0.5 1.3 0.9l2 0.9-2.6-0.1 14.4-5.6v3.3l-10.6 4v-1.2l10.6 4v3.4l-14.4-5.7q-1.3-0.5-2.2-1.2-0.9-0.7-1.3-1.7-0.5-0.9-0.5-2.2zm5.3 15.7v-3.2h18.2v3.2zm-0.3 9.3q0-2 0.9-3.5 0.9-1.6 2.4-2.5 1.5-1 3.5-1 2 0 3.5 1 1.6 0.9 2.4 2.5 0.9 1.5 0.9 3.5 0 1.9-0.9 3.4-0.8 1.6-2.4 2.5-1.5 0.9-3.5 0.9-2 0-3.5-0.9-1.5-0.9-2.4-2.5-0.9-1.5-0.9-3.4zm2.9 0q0 1 0.5 1.8 0.5 0.8 1.4 1.3 0.9 0.5 2 0.5 1.2 0 2-0.5 0.9-0.5 1.4-1.3 0.5-0.8 0.5-1.8 0-1.1-0.5-1.9-0.5-0.9-1.4-1.3-0.8-0.5-2-0.5-1.1 0-2 0.5-0.9 0.4-1.4 1.3-0.5 0.8-0.5 1.9zm-2.9 15.4q0-2 0.9-3.5 0.9-1.5 2.5-2.4 1.5-0.8 3.4-0.8 2 0 3.5 0.8 1.6 0.9 2.4 2.4 0.9 1.4 0.9 3.3 0 1.5-0.5 2.7-0.5 1.1-1.4 2-0.9 0.8-2 1.2-1.1 0.4-2.5 0.4-0.3 0-0.7 0-0.3 0-0.6-0.1v-10.1h2.4v8.3l-1.1-1.5q1.1 0.2 2-0.1 0.8-0.3 1.3-1.1 0.5-0.7 0.5-1.7 0-1-0.5-1.8-0.4-0.7-1.4-1.2-0.9-0.3-2.3-0.2-1.2-0.1-2.1 0.3-0.9 0.4-1.4 1.2-0.5 0.9-0.5 1.9 0 1.1 0.4 1.9 0.5 0.7 1.2 1.2l-1.2 2.5q-0.9-0.4-1.7-1.2-0.7-0.8-1.1-1.9-0.4-1.1-0.4-2.5z"/><path class="d" d="m143.2 893h-3.3v-15h-4.6v-2.9h12.5v2.9h-4.6zm9.5 0h-3.2v-18.2h3.2v7.7l-0.5-0.4q0.5-1.2 1.5-1.8 1.1-0.6 2.5-0.6 1.4 0 2.5 0.6 1.1 0.6 1.8 1.7 0.6 1.1 0.6 2.6v8.4h-3.2v-7.7q0-0.8-0.3-1.4-0.3-0.7-0.9-1-0.6-0.4-1.4-0.4-0.8 0-1.4 0.4-0.6 0.3-0.9 1-0.3 0.6-0.3 1.4zm17.2 0.3q-2 0-3.5-0.9-1.5-0.9-2.3-2.5-0.9-1.5-0.9-3.4 0-2 0.9-3.5 0.8-1.5 2.3-2.4 1.5-0.9 3.3-0.9 1.5 0 2.7 0.5 1.2 0.5 2 1.4 0.8 0.9 1.2 2 0.5 1.2 0.5 2.5 0 0.3-0.1 0.7 0 0.3-0.1 0.6h-10.1v-2.4h8.3l-1.5 1.1q0.2-1.1-0.1-1.9-0.3-0.9-1.1-1.4-0.7-0.5-1.7-0.5-1 0-1.8 0.5-0.7 0.5-1.1 1.4-0.4 1-0.3 2.3-0.1 1.2 0.3 2.2 0.4 0.9 1.2 1.4 0.9 0.5 2 0.5 1 0 1.8-0.5 0.7-0.4 1.2-1.2l2.5 1.2q-0.4 1-1.2 1.7-0.8 0.7-1.9 1.1-1.1 0.4-2.5 0.4zm-33.8 22q-1.9 0-3.5-0.7-1.7-0.7-2.9-1.9-1.2-1.3-1.9-2.9-0.6-1.7-0.6-3.7 0-2 0.6-3.7 0.7-1.7 1.9-2.9 1.2-1.3 2.9-1.9 1.6-0.7 3.5-0.7 1.9 0 3.4 0.6 1.6 0.7 2.6 1.8 1.1 1 1.5 2.3l-2.9 1.3q-0.5-1.3-1.7-2.2-1.2-0.8-2.9-0.8-1.7 0-3 0.7-1.2 0.8-2 2.2-0.7 1.4-0.7 3.3 0 1.9 0.7 3.3 0.8 1.4 2 2.2 1.3 0.8 3 0.8 1.7 0 2.9-0.9 1.2-0.9 1.7-2.2l2.9 1.3q-0.4 1.3-1.5 2.4-1 1-2.6 1.7-1.5 0.6-3.4 0.6zm13.6 0q-1.3 0-2.3-0.4-1-0.5-1.6-1.3-0.6-0.9-0.6-2 0-1.1 0.5-1.9 0.5-0.9 1.5-1.5 1-0.5 2.6-0.8l4.2-0.7v2.4l-3.6 0.6q-1 0.2-1.4 0.6-0.5 0.5-0.5 1.2 0 0.6 0.5 1 0.5 0.4 1.3 0.4 1 0 1.7-0.4 0.8-0.4 1.2-1.2 0.4-0.7 0.4-1.6v-3.3q0-0.9-0.6-1.4-0.7-0.6-1.8-0.6-1 0-1.8 0.5-0.7 0.6-1.1 1.5l-2.5-1.3q0.3-1 1.2-1.8 0.8-0.7 1.9-1.2 1.1-0.4 2.5-0.4 1.6 0 2.8 0.6 1.2 0.6 1.9 1.6 0.7 1.1 0.7 2.5v8.6h-3v-2.2h0.7q-0.5 0.8-1.2 1.4-0.7 0.5-1.6 0.8-0.9 0.3-2 0.3zm16.5-0.3h-2.8l-5.1-13h3.4l3.7 10.3h-1.3l3.8-10.3h3.4zm12.8 0.3q-2 0-3.5-0.9-1.5-0.9-2.4-2.5-0.8-1.6-0.8-3.5 0-1.9 0.8-3.4 0.9-1.6 2.4-2.5 1.5-0.9 3.3-0.9 1.5 0 2.7 0.5 1.2 0.6 2 1.4 0.8 0.9 1.2 2.1 0.4 1.1 0.4 2.4 0 0.4 0 0.7 0 0.4-0.1 0.6h-10.1v-2.4h8.3l-1.5 1.2q0.2-1.1-0.1-2-0.3-0.9-1.1-1.4-0.7-0.5-1.7-0.5-1 0-1.8 0.5-0.7 0.5-1.1 1.5-0.4 0.9-0.3 2.3-0.1 1.2 0.3 2.1 0.4 0.9 1.2 1.4 0.9 0.5 2 0.5 1 0 1.8-0.4 0.7-0.5 1.2-1.3l2.5 1.3q-0.4 0.9-1.2 1.6-0.8 0.8-1.9 1.2-1.1 0.4-2.5 0.4z"/><path class="d" d="m390.4 803h-5.8v-17.9h5.8q2.9 0 5 1.2 2.1 1.1 3.2 3.1 1.2 2 1.2 4.6 0 2.7-1.2 4.7-1.1 2-3.2 3.2-2.1 1.1-5 1.1zm-2.5-15v12.1h2.6q1.8 0 3.2-0.7 1.3-0.8 2.1-2.1 0.7-1.4 0.7-3.3 0-1.8-0.7-3.2-0.8-1.3-2.1-2.1-1.4-0.7-3.2-0.7zm20.4 15.3q-2 0-3.5-0.9-1.5-0.9-2.3-2.5-0.9-1.6-0.9-3.5 0-1.9 0.9-3.4 0.8-1.6 2.3-2.5 1.5-0.8 3.3-0.8 1.5 0 2.7 0.5 1.2 0.5 2 1.4 0.8 0.8 1.2 2 0.5 1.1 0.5 2.4 0 0.4-0.1 0.7 0 0.4-0.1 0.7h-10.1v-2.4h8.3l-1.5 1.1q0.2-1.1-0.1-2-0.3-0.8-1-1.3-0.8-0.6-1.8-0.6-1 0-1.7 0.6-0.8 0.4-1.2 1.4-0.4 0.9-0.3 2.3-0.1 1.2 0.3 2.1 0.4 0.9 1.2 1.4 0.9 0.5 2 0.5 1 0 1.8-0.4 0.8-0.5 1.2-1.3l2.5 1.3q-0.3 0.9-1.2 1.7-0.8 0.7-1.9 1.1-1.1 0.4-2.5 0.4zm15-0.3h-2.8l-5.1-13.1h3.4l3.8 10.3h-1.3l3.7-10.3h3.5zm10 0h-3.2v-13h3.2zm0-14.5h-3.2v-3.4h3.2zm6 14.5h-3.1v-18.1h3.1zm7.9 0.2q-2.1 0-3.7-0.9-1.5-1-2.1-2.7l2.4-1.2q0.5 1.1 1.4 1.8 0.9 0.6 2 0.6 0.8 0 1.4-0.4 0.5-0.4 0.5-1 0-0.4-0.3-0.6-0.2-0.3-0.5-0.5-0.3-0.2-0.8-0.3l-2.1-0.6q-1.6-0.5-2.5-1.4-0.9-1-0.9-2.4 0-1.2 0.6-2.1 0.7-0.9 1.8-1.4 1.1-0.5 2.5-0.5 1.8 0 3.2 0.9 1.5 0.9 2.1 2.5l-2.4 1.1q-0.4-0.9-1.2-1.4-0.8-0.5-1.8-0.5-0.7 0-1.2 0.3-0.5 0.4-0.5 1 0 0.3 0.2 0.6 0.2 0.3 0.6 0.4 0.3 0.2 0.8 0.3l2.1 0.7q1.6 0.5 2.4 1.4 0.9 1 0.9 2.4 0 1.1-0.6 2.1-0.6 0.8-1.7 1.3-1.1 0.5-2.6 0.5zm-71 21.8h-3.3v-17.9h3.2l6.7 9.1h-1.5l6.5-9.1h3.1v17.9h-3.2v-14.2l1.2 0.3-6.8 9.1h-0.4l-6.6-9.1 1.1-0.3zm21.9 0.3q-1.4 0-2.4-0.5-1-0.4-1.6-1.3-0.5-0.8-0.5-2 0-1 0.5-1.9 0.4-0.8 1.4-1.4 1.1-0.6 2.6-0.8l4.3-0.7v2.4l-3.7 0.6q-0.9 0.2-1.4 0.6-0.5 0.4-0.5 1.1 0 0.7 0.5 1.1 0.6 0.4 1.3 0.4 1 0 1.8-0.4 0.7-0.5 1.1-1.2 0.5-0.7 0.5-1.6v-3.4q0-0.8-0.7-1.4-0.6-0.6-1.7-0.6-1 0-1.8 0.6-0.8 0.5-1.1 1.4l-2.6-1.2q0.4-1.1 1.2-1.8 0.8-0.8 2-1.2 1.1-0.4 2.4-0.4 1.6 0 2.8 0.6 1.3 0.5 1.9 1.6 0.7 1 0.7 2.4v8.7h-3v-2.2l0.7-0.1q-0.5 0.9-1.2 1.4-0.7 0.6-1.6 0.9-0.9 0.3-1.9 0.3zm13.1-0.3h-3.2v-13.1h3v2.9l-0.3-0.4q0.5-1.4 1.5-2 0.9-0.6 2.3-0.6h0.8v2.8h-1.2q-1.3 0-2.1 0.8-0.8 0.8-0.8 2.3zm12.9 0.3q-1.4 0-2.6-0.5-1.2-0.6-1.9-1.7l0.4-0.6v2.5h-3v-18.1h3.1v7.7l-0.4-0.7q0.6-1 1.8-1.6 1.1-0.6 2.7-0.6 1.8 0 3.3 0.9 1.5 0.9 2.3 2.4 0.9 1.6 0.9 3.5 0 1.9-0.8 3.5-0.9 1.5-2.4 2.4-1.5 0.9-3.4 0.9zm-0.3-2.9q1.1 0 1.9-0.5 0.8-0.5 1.3-1.4 0.5-0.8 0.5-2 0-1.2-0.5-2-0.5-0.9-1.3-1.4-0.8-0.5-1.9-0.5-1.1 0-1.9 0.5-0.8 0.5-1.3 1.4-0.5 0.9-0.5 2 0 1.2 0.5 2 0.5 0.9 1.3 1.4 0.8 0.5 1.9 0.5zm12.5 2.6h-3.2v-18.1h3.2zm9.1 0.2q-2 0-3.6-0.9-1.5-0.9-2.3-2.4-0.8-1.6-0.8-3.5 0-2 0.8-3.5 0.9-1.5 2.3-2.4 1.5-0.9 3.3-0.9 1.6 0 2.7 0.5 1.2 0.5 2 1.4 0.8 0.9 1.3 2.1 0.4 1.1 0.4 2.4 0 0.3-0.1 0.7 0 0.4-0.1 0.6h-10.1v-2.4h8.3l-1.4 1.1q0.2-1.1-0.2-1.9-0.3-0.9-1-1.4-0.7-0.5-1.8-0.5-1 0-1.7 0.5-0.8 0.5-1.2 1.5-0.4 0.9-0.3 2.2-0.1 1.2 0.3 2.2 0.5 0.9 1.3 1.4 0.8 0.5 1.9 0.5 1.1 0 1.8-0.5 0.8-0.4 1.2-1.2l2.6 1.3q-0.4 0.9-1.2 1.6-0.9 0.7-2 1.1-1.1 0.4-2.4 0.4zm13.4 0q-2.1 0-3.6-0.9-1.5-1-2.1-2.7l2.3-1.2q0.5 1.1 1.4 1.8 0.9 0.6 2 0.6 0.9 0 1.4-0.4 0.5-0.4 0.5-1 0-0.4-0.2-0.6-0.2-0.3-0.6-0.5-0.3-0.2-0.7-0.3l-2.1-0.6q-1.7-0.5-2.6-1.4-0.8-1-0.8-2.4 0-1.2 0.6-2.1 0.6-0.9 1.7-1.4 1.1-0.5 2.5-0.5 1.9 0 3.3 0.9 1.4 0.9 2 2.5l-2.4 1.1q-0.3-0.9-1.1-1.4-0.8-0.5-1.8-0.5-0.8 0-1.2 0.3-0.5 0.4-0.5 1 0 0.3 0.2 0.6 0.2 0.3 0.5 0.4 0.4 0.2 0.8 0.3l2.1 0.7q1.6 0.5 2.5 1.4 0.9 1 0.9 2.4 0 1.1-0.6 2.1-0.7 0.8-1.8 1.3-1.1 0.5-2.6 0.5z"/><path fill-rule="evenodd" class="c" d="m156.6 1020.6l12.8 12.1z"/><path fill-rule="evenodd" class="c" d="m433 946.1v22.3z"/></svg>